%TF.GenerationSoftware,KiCad,Pcbnew,6.0.4-6f826c9f35~116~ubuntu20.04.1*%
%TF.CreationDate,2022-04-22T17:38:49+02:00*%
%TF.ProjectId,Pmod-Alinx,506d6f64-2d41-46c6-996e-782e6b696361,rev?*%
%TF.SameCoordinates,Original*%
%TF.FileFunction,Soldermask,Bot*%
%TF.FilePolarity,Negative*%
%FSLAX46Y46*%
G04 Gerber Fmt 4.6, Leading zero omitted, Abs format (unit mm)*
G04 Created by KiCad (PCBNEW 6.0.4-6f826c9f35~116~ubuntu20.04.1) date 2022-04-22 17:38:49*
%MOMM*%
%LPD*%
G01*
G04 APERTURE LIST*
%ADD10C,1.500000*%
%ADD11R,1.500000X1.500000*%
G04 APERTURE END LIST*
D10*
%TO.C,U1*%
X128730000Y-79650000D03*
X128730000Y-82190000D03*
X128730000Y-84730000D03*
X128730000Y-87270000D03*
X128730000Y-89810000D03*
X128730000Y-92350000D03*
X131270000Y-92350000D03*
X131270000Y-89810000D03*
X131270000Y-87270000D03*
X131270000Y-84730000D03*
X131270000Y-82190000D03*
X131270000Y-79650000D03*
%TD*%
%TO.C,U2*%
X128730000Y-102510000D03*
X128730000Y-105050000D03*
X128730000Y-107590000D03*
X128730000Y-110130000D03*
X128730000Y-112670000D03*
X128730000Y-115210000D03*
X131270000Y-115210000D03*
X131270000Y-112670000D03*
X131270000Y-110130000D03*
X131270000Y-107590000D03*
X131270000Y-105050000D03*
X131270000Y-102510000D03*
%TD*%
D11*
%TO.C,U4*%
X114170000Y-61870000D03*
D10*
X116710000Y-61870000D03*
X114170000Y-64410000D03*
X116710000Y-64410000D03*
X114170000Y-66950000D03*
X116710000Y-66950000D03*
X114170000Y-69490000D03*
X116710000Y-69490000D03*
X114170000Y-72030000D03*
X116710000Y-72030000D03*
X114170000Y-74570000D03*
X116710000Y-74570000D03*
X114170000Y-77110000D03*
X116710000Y-77110000D03*
X114170000Y-79650000D03*
X116710000Y-79650000D03*
X114170000Y-82190000D03*
X116710000Y-82190000D03*
X114170000Y-84730000D03*
X116710000Y-84730000D03*
X114170000Y-87270000D03*
X116710000Y-87270000D03*
X114170000Y-89810000D03*
X116710000Y-89810000D03*
X114170000Y-92350000D03*
X116710000Y-92350000D03*
X114170000Y-94890000D03*
X116710000Y-94890000D03*
X114170000Y-97430000D03*
X116710000Y-97430000D03*
X114170000Y-99970000D03*
X116710000Y-99970000D03*
X114170000Y-102510000D03*
X116710000Y-102510000D03*
X114170000Y-105050000D03*
X116710000Y-105050000D03*
X114170000Y-107590000D03*
X116710000Y-107590000D03*
X114170000Y-110130000D03*
X116710000Y-110130000D03*
%TD*%
%TO.C,U3*%
X128730000Y-56790000D03*
X128730000Y-59330000D03*
X128730000Y-61870000D03*
X128730000Y-64410000D03*
X128730000Y-66950000D03*
X128730000Y-69490000D03*
X131270000Y-69490000D03*
X131270000Y-66950000D03*
X131270000Y-64410000D03*
X131270000Y-61870000D03*
X131270000Y-59330000D03*
X131270000Y-56790000D03*
%TD*%
M02*
