%TF.GenerationSoftware,KiCad,Pcbnew,6.0.4-6f826c9f35~116~ubuntu20.04.1*%
%TF.CreationDate,2022-04-22T17:38:49+02:00*%
%TF.ProjectId,Pmod-Alinx,506d6f64-2d41-46c6-996e-782e6b696361,rev?*%
%TF.SameCoordinates,Original*%
%TF.FileFunction,Legend,Bot*%
%TF.FilePolarity,Positive*%
%FSLAX46Y46*%
G04 Gerber Fmt 4.6, Leading zero omitted, Abs format (unit mm)*
G04 Created by KiCad (PCBNEW 6.0.4-6f826c9f35~116~ubuntu20.04.1) date 2022-04-22 17:38:49*
%MOMM*%
%LPD*%
G01*
G04 APERTURE LIST*
%ADD10C,0.300000*%
G04 APERTURE END LIST*
D10*
X123678571Y-67285714D02*
X122178571Y-67285714D01*
X123678571Y-67928571D02*
X122892857Y-67928571D01*
X122750000Y-67857142D01*
X122678571Y-67714285D01*
X122678571Y-67500000D01*
X122750000Y-67357142D01*
X122821428Y-67285714D01*
X122678571Y-68428571D02*
X122678571Y-69000000D01*
X122178571Y-68642857D02*
X123464285Y-68642857D01*
X123607142Y-68714285D01*
X123678571Y-68857142D01*
X123678571Y-69000000D01*
X122678571Y-69285714D02*
X122678571Y-69857142D01*
X122178571Y-69500000D02*
X123464285Y-69500000D01*
X123607142Y-69571428D01*
X123678571Y-69714285D01*
X123678571Y-69857142D01*
X122678571Y-70357142D02*
X124178571Y-70357142D01*
X122750000Y-70357142D02*
X122678571Y-70500000D01*
X122678571Y-70785714D01*
X122750000Y-70928571D01*
X122821428Y-71000000D01*
X122964285Y-71071428D01*
X123392857Y-71071428D01*
X123535714Y-71000000D01*
X123607142Y-70928571D01*
X123678571Y-70785714D01*
X123678571Y-70500000D01*
X123607142Y-70357142D01*
X123607142Y-71642857D02*
X123678571Y-71785714D01*
X123678571Y-72071428D01*
X123607142Y-72214285D01*
X123464285Y-72285714D01*
X123392857Y-72285714D01*
X123250000Y-72214285D01*
X123178571Y-72071428D01*
X123178571Y-71857142D01*
X123107142Y-71714285D01*
X122964285Y-71642857D01*
X122892857Y-71642857D01*
X122750000Y-71714285D01*
X122678571Y-71857142D01*
X122678571Y-72071428D01*
X122750000Y-72214285D01*
X123535714Y-72928571D02*
X123607142Y-73000000D01*
X123678571Y-72928571D01*
X123607142Y-72857142D01*
X123535714Y-72928571D01*
X123678571Y-72928571D01*
X122750000Y-72928571D02*
X122821428Y-73000000D01*
X122892857Y-72928571D01*
X122821428Y-72857142D01*
X122750000Y-72928571D01*
X122892857Y-72928571D01*
X122107142Y-74714285D02*
X124035714Y-73428571D01*
X122107142Y-76285714D02*
X124035714Y-75000000D01*
X122678571Y-76642857D02*
X123678571Y-76928571D01*
X122964285Y-77214285D01*
X123678571Y-77500000D01*
X122678571Y-77785714D01*
X122678571Y-78214285D02*
X123678571Y-78500000D01*
X122964285Y-78785714D01*
X123678571Y-79071428D01*
X122678571Y-79357142D01*
X122678571Y-79785714D02*
X123678571Y-80071428D01*
X122964285Y-80357142D01*
X123678571Y-80642857D01*
X122678571Y-80928571D01*
X123535714Y-81500000D02*
X123607142Y-81571428D01*
X123678571Y-81500000D01*
X123607142Y-81428571D01*
X123535714Y-81500000D01*
X123678571Y-81500000D01*
X122678571Y-82857142D02*
X123892857Y-82857142D01*
X124035714Y-82785714D01*
X124107142Y-82714285D01*
X124178571Y-82571428D01*
X124178571Y-82357142D01*
X124107142Y-82214285D01*
X123607142Y-82857142D02*
X123678571Y-82714285D01*
X123678571Y-82428571D01*
X123607142Y-82285714D01*
X123535714Y-82214285D01*
X123392857Y-82142857D01*
X122964285Y-82142857D01*
X122821428Y-82214285D01*
X122750000Y-82285714D01*
X122678571Y-82428571D01*
X122678571Y-82714285D01*
X122750000Y-82857142D01*
X123678571Y-83571428D02*
X122678571Y-83571428D01*
X122178571Y-83571428D02*
X122250000Y-83500000D01*
X122321428Y-83571428D01*
X122250000Y-83642857D01*
X122178571Y-83571428D01*
X122321428Y-83571428D01*
X122678571Y-84071428D02*
X122678571Y-84642857D01*
X122178571Y-84285714D02*
X123464285Y-84285714D01*
X123607142Y-84357142D01*
X123678571Y-84500000D01*
X123678571Y-84642857D01*
X123678571Y-85142857D02*
X122178571Y-85142857D01*
X123678571Y-85785714D02*
X122892857Y-85785714D01*
X122750000Y-85714285D01*
X122678571Y-85571428D01*
X122678571Y-85357142D01*
X122750000Y-85214285D01*
X122821428Y-85142857D01*
X122678571Y-87142857D02*
X123678571Y-87142857D01*
X122678571Y-86500000D02*
X123464285Y-86500000D01*
X123607142Y-86571428D01*
X123678571Y-86714285D01*
X123678571Y-86928571D01*
X123607142Y-87071428D01*
X123535714Y-87142857D01*
X123678571Y-87857142D02*
X122178571Y-87857142D01*
X122750000Y-87857142D02*
X122678571Y-88000000D01*
X122678571Y-88285714D01*
X122750000Y-88428571D01*
X122821428Y-88500000D01*
X122964285Y-88571428D01*
X123392857Y-88571428D01*
X123535714Y-88500000D01*
X123607142Y-88428571D01*
X123678571Y-88285714D01*
X123678571Y-88000000D01*
X123607142Y-87857142D01*
X123535714Y-89214285D02*
X123607142Y-89285714D01*
X123678571Y-89214285D01*
X123607142Y-89142857D01*
X123535714Y-89214285D01*
X123678571Y-89214285D01*
X123607142Y-90571428D02*
X123678571Y-90428571D01*
X123678571Y-90142857D01*
X123607142Y-90000000D01*
X123535714Y-89928571D01*
X123392857Y-89857142D01*
X122964285Y-89857142D01*
X122821428Y-89928571D01*
X122750000Y-90000000D01*
X122678571Y-90142857D01*
X122678571Y-90428571D01*
X122750000Y-90571428D01*
X123678571Y-91428571D02*
X123607142Y-91285714D01*
X123535714Y-91214285D01*
X123392857Y-91142857D01*
X122964285Y-91142857D01*
X122821428Y-91214285D01*
X122750000Y-91285714D01*
X122678571Y-91428571D01*
X122678571Y-91642857D01*
X122750000Y-91785714D01*
X122821428Y-91857142D01*
X122964285Y-91928571D01*
X123392857Y-91928571D01*
X123535714Y-91857142D01*
X123607142Y-91785714D01*
X123678571Y-91642857D01*
X123678571Y-91428571D01*
X123678571Y-92571428D02*
X122678571Y-92571428D01*
X122821428Y-92571428D02*
X122750000Y-92642857D01*
X122678571Y-92785714D01*
X122678571Y-93000000D01*
X122750000Y-93142857D01*
X122892857Y-93214285D01*
X123678571Y-93214285D01*
X122892857Y-93214285D02*
X122750000Y-93285714D01*
X122678571Y-93428571D01*
X122678571Y-93642857D01*
X122750000Y-93785714D01*
X122892857Y-93857142D01*
X123678571Y-93857142D01*
X122107142Y-95642857D02*
X124035714Y-94357142D01*
X123678571Y-96142857D02*
X122178571Y-96142857D01*
X122178571Y-96500000D01*
X122250000Y-96714285D01*
X122392857Y-96857142D01*
X122535714Y-96928571D01*
X122821428Y-97000000D01*
X123035714Y-97000000D01*
X123321428Y-96928571D01*
X123464285Y-96857142D01*
X123607142Y-96714285D01*
X123678571Y-96500000D01*
X123678571Y-96142857D01*
X123678571Y-98500000D02*
X122964285Y-98000000D01*
X123678571Y-97642857D02*
X122178571Y-97642857D01*
X122178571Y-98214285D01*
X122250000Y-98357142D01*
X122321428Y-98428571D01*
X122464285Y-98500000D01*
X122678571Y-98500000D01*
X122821428Y-98428571D01*
X122892857Y-98357142D01*
X122964285Y-98214285D01*
X122964285Y-97642857D01*
X122678571Y-99785714D02*
X123678571Y-99785714D01*
X122678571Y-99142857D02*
X123464285Y-99142857D01*
X123607142Y-99214285D01*
X123678571Y-99357142D01*
X123678571Y-99571428D01*
X123607142Y-99714285D01*
X123535714Y-99785714D01*
X123678571Y-100500000D02*
X122178571Y-100500000D01*
X122750000Y-100500000D02*
X122678571Y-100642857D01*
X122678571Y-100928571D01*
X122750000Y-101071428D01*
X122821428Y-101142857D01*
X122964285Y-101214285D01*
X123392857Y-101214285D01*
X123535714Y-101142857D01*
X123607142Y-101071428D01*
X123678571Y-100928571D01*
X123678571Y-100642857D01*
X123607142Y-100500000D01*
X123678571Y-101857142D02*
X122678571Y-101857142D01*
X122178571Y-101857142D02*
X122250000Y-101785714D01*
X122321428Y-101857142D01*
X122250000Y-101928571D01*
X122178571Y-101857142D01*
X122321428Y-101857142D01*
X123678571Y-102785714D02*
X123607142Y-102642857D01*
X123535714Y-102571428D01*
X123392857Y-102500000D01*
X122964285Y-102500000D01*
X122821428Y-102571428D01*
X122750000Y-102642857D01*
X122678571Y-102785714D01*
X122678571Y-103000000D01*
X122750000Y-103142857D01*
X122821428Y-103214285D01*
X122964285Y-103285714D01*
X123392857Y-103285714D01*
X123535714Y-103214285D01*
X123607142Y-103142857D01*
X123678571Y-103000000D01*
X123678571Y-102785714D01*
X122250000Y-104714285D02*
X122178571Y-104571428D01*
X122178571Y-104357142D01*
X122250000Y-104142857D01*
X122392857Y-104000000D01*
X122535714Y-103928571D01*
X122821428Y-103857142D01*
X123035714Y-103857142D01*
X123321428Y-103928571D01*
X123464285Y-104000000D01*
X123607142Y-104142857D01*
X123678571Y-104357142D01*
X123678571Y-104500000D01*
X123607142Y-104714285D01*
X123535714Y-104785714D01*
X123035714Y-104785714D01*
X123035714Y-104500000D01*
M02*
