M48
; DRILL file {KiCad 6.0.4-6f826c9f35~116~ubuntu20.04.1} date vie 22 abr 2022 17:38:53
; FORMAT={-:-/ absolute / inch / decimal}
; #@! TF.CreationDate,2022-04-22T17:38:53+02:00
; #@! TF.GenerationSoftware,Kicad,Pcbnew,6.0.4-6f826c9f35~116~ubuntu20.04.1
; #@! TF.FileFunction,Plated,1,2,PTH
FMAT,2
INCH
; #@! TA.AperFunction,Plated,PTH,ComponentDrill
T1C0.0315
%
G90
G05
T1
X4.4949Y-2.4358
X4.4949Y-2.5358
X4.4949Y-2.6358
X4.4949Y-2.7358
X4.4949Y-2.8358
X4.4949Y-2.9358
X4.4949Y-3.0358
X4.4949Y-3.1358
X4.4949Y-3.2358
X4.4949Y-3.3358
X4.4949Y-3.4358
X4.4949Y-3.5358
X4.4949Y-3.6358
X4.4949Y-3.7358
X4.4949Y-3.8358
X4.4949Y-3.9358
X4.4949Y-4.0358
X4.4949Y-4.1358
X4.4949Y-4.2358
X4.4949Y-4.3358
X4.5949Y-2.4358
X4.5949Y-2.5358
X4.5949Y-2.6358
X4.5949Y-2.7358
X4.5949Y-2.8358
X4.5949Y-2.9358
X4.5949Y-3.0358
X4.5949Y-3.1358
X4.5949Y-3.2358
X4.5949Y-3.3358
X4.5949Y-3.4358
X4.5949Y-3.5358
X4.5949Y-3.6358
X4.5949Y-3.7358
X4.5949Y-3.8358
X4.5949Y-3.9358
X4.5949Y-4.0358
X4.5949Y-4.1358
X4.5949Y-4.2358
X4.5949Y-4.3358
X5.0681Y-2.2358
X5.0681Y-2.3358
X5.0681Y-2.4358
X5.0681Y-2.5358
X5.0681Y-2.6358
X5.0681Y-2.7358
X5.0681Y-3.1358
X5.0681Y-3.2358
X5.0681Y-3.3358
X5.0681Y-3.4358
X5.0681Y-3.5358
X5.0681Y-3.6358
X5.0681Y-4.0358
X5.0681Y-4.1358
X5.0681Y-4.2358
X5.0681Y-4.3358
X5.0681Y-4.4358
X5.0681Y-4.5358
X5.1681Y-2.2358
X5.1681Y-2.3358
X5.1681Y-2.4358
X5.1681Y-2.5358
X5.1681Y-2.6358
X5.1681Y-2.7358
X5.1681Y-3.1358
X5.1681Y-3.2358
X5.1681Y-3.3358
X5.1681Y-3.4358
X5.1681Y-3.5358
X5.1681Y-3.6358
X5.1681Y-4.0358
X5.1681Y-4.1358
X5.1681Y-4.2358
X5.1681Y-4.3358
X5.1681Y-4.4358
X5.1681Y-4.5358
T0
M30
