%TF.GenerationSoftware,KiCad,Pcbnew,6.0.4-6f826c9f35~116~ubuntu20.04.1*%
%TF.CreationDate,2022-04-22T17:38:49+02:00*%
%TF.ProjectId,Pmod-Alinx,506d6f64-2d41-46c6-996e-782e6b696361,rev?*%
%TF.SameCoordinates,Original*%
%TF.FileFunction,Copper,L2,Bot*%
%TF.FilePolarity,Positive*%
%FSLAX46Y46*%
G04 Gerber Fmt 4.6, Leading zero omitted, Abs format (unit mm)*
G04 Created by KiCad (PCBNEW 6.0.4-6f826c9f35~116~ubuntu20.04.1) date 2022-04-22 17:38:49*
%MOMM*%
%LPD*%
G01*
G04 APERTURE LIST*
%TA.AperFunction,ComponentPad*%
%ADD10C,1.500000*%
%TD*%
%TA.AperFunction,ComponentPad*%
%ADD11R,1.500000X1.500000*%
%TD*%
%TA.AperFunction,Conductor*%
%ADD12C,0.500000*%
%TD*%
G04 APERTURE END LIST*
D10*
%TO.P,U1,1,VCC*%
%TO.N,/Pmod2_6*%
X128730000Y-79650000D03*
%TO.P,U1,2,GND*%
%TO.N,/Pmod2_4*%
X128730000Y-82190000D03*
%TO.P,U1,3,1*%
%TO.N,/Pmod2_2*%
X128730000Y-84730000D03*
%TO.P,U1,4,2*%
%TO.N,/Pmod2_0*%
X128730000Y-87270000D03*
%TO.P,U1,5,3*%
%TO.N,GND*%
X128730000Y-89810000D03*
%TO.P,U1,6,4*%
%TO.N,+3V3*%
X128730000Y-92350000D03*
%TO.P,U1,7,5*%
X131270000Y-92350000D03*
%TO.P,U1,8,6*%
%TO.N,GND*%
X131270000Y-89810000D03*
%TO.P,U1,9,7*%
%TO.N,/Pmod2_1*%
X131270000Y-87270000D03*
%TO.P,U1,10,8*%
%TO.N,/Pmod2_3*%
X131270000Y-84730000D03*
%TO.P,U1,11,GND*%
%TO.N,/Pmod2_5*%
X131270000Y-82190000D03*
%TO.P,U1,12,VCC*%
%TO.N,/Pmod2_7*%
X131270000Y-79650000D03*
%TD*%
%TO.P,U2,1,VCC*%
%TO.N,/Pmod3_6*%
X128730000Y-102510000D03*
%TO.P,U2,2,GND*%
%TO.N,/Pmod3_4*%
X128730000Y-105050000D03*
%TO.P,U2,3,1*%
%TO.N,/Pmod3_2*%
X128730000Y-107590000D03*
%TO.P,U2,4,2*%
%TO.N,/Pmod3_0*%
X128730000Y-110130000D03*
%TO.P,U2,5,3*%
%TO.N,GND*%
X128730000Y-112670000D03*
%TO.P,U2,6,4*%
%TO.N,+3V3*%
X128730000Y-115210000D03*
%TO.P,U2,7,5*%
X131270000Y-115210000D03*
%TO.P,U2,8,6*%
%TO.N,GND*%
X131270000Y-112670000D03*
%TO.P,U2,9,7*%
%TO.N,/Pmod3_1*%
X131270000Y-110130000D03*
%TO.P,U2,10,8*%
%TO.N,/Pmod3_3*%
X131270000Y-107590000D03*
%TO.P,U2,11,GND*%
%TO.N,/Pmod3_5*%
X131270000Y-105050000D03*
%TO.P,U2,12,VCC*%
%TO.N,/Pmod3_7*%
X131270000Y-102510000D03*
%TD*%
D11*
%TO.P,U4,1,GND*%
%TO.N,GND*%
X114170000Y-61870000D03*
D10*
%TO.P,U4,2,VCC_5V*%
%TO.N,unconnected-(U4-Pad2)*%
X116710000Y-61870000D03*
%TO.P,U4,3,IO2_1N*%
%TO.N,/Pmod1_6*%
X114170000Y-64410000D03*
%TO.P,U4,4,IO2_1P*%
%TO.N,/Pmod1_7*%
X116710000Y-64410000D03*
%TO.P,U4,5,IO2_2N*%
%TO.N,/Pmod1_4*%
X114170000Y-66950000D03*
%TO.P,U4,6,IO2_2P*%
%TO.N,/Pmod1_5*%
X116710000Y-66950000D03*
%TO.P,U4,7,IO2_3N*%
%TO.N,/Pmod1_2*%
X114170000Y-69490000D03*
%TO.P,U4,8,IO2_3P*%
%TO.N,/Pmod1_3*%
X116710000Y-69490000D03*
%TO.P,U4,9,IO2_4N*%
%TO.N,/Pmod1_0*%
X114170000Y-72030000D03*
%TO.P,U4,10,IO2_4P*%
%TO.N,/Pmod1_1*%
X116710000Y-72030000D03*
%TO.P,U4,11,IO2_5N*%
%TO.N,unconnected-(U4-Pad11)*%
X114170000Y-74570000D03*
%TO.P,U4,12,IO2_5P*%
%TO.N,unconnected-(U4-Pad12)*%
X116710000Y-74570000D03*
%TO.P,U4,13,IO2_6N*%
%TO.N,/Pmod2_6*%
X114170000Y-77110000D03*
%TO.P,U4,14,IO2_6P*%
%TO.N,/Pmod2_7*%
X116710000Y-77110000D03*
%TO.P,U4,15,IO2_7N*%
%TO.N,/Pmod2_4*%
X114170000Y-79650000D03*
%TO.P,U4,16,IO2_7P*%
%TO.N,/Pmod2_5*%
X116710000Y-79650000D03*
%TO.P,U4,17,IO2_8N*%
%TO.N,/Pmod2_2*%
X114170000Y-82190000D03*
%TO.P,U4,18,IO2_8P*%
%TO.N,/Pmod2_3*%
X116710000Y-82190000D03*
%TO.P,U4,19,IO2_9N*%
%TO.N,/Pmod2_0*%
X114170000Y-84730000D03*
%TO.P,U4,20,IO2_9P*%
%TO.N,/Pmod2_1*%
X116710000Y-84730000D03*
%TO.P,U4,21,IO2_10N*%
%TO.N,unconnected-(U4-Pad21)*%
X114170000Y-87270000D03*
%TO.P,U4,22,IO2_10P*%
%TO.N,unconnected-(U4-Pad22)*%
X116710000Y-87270000D03*
%TO.P,U4,23,IO2_11N*%
%TO.N,unconnected-(U4-Pad23)*%
X114170000Y-89810000D03*
%TO.P,U4,24,IO2_11P*%
%TO.N,unconnected-(U4-Pad24)*%
X116710000Y-89810000D03*
%TO.P,U4,25,IO2_12N*%
%TO.N,unconnected-(U4-Pad25)*%
X114170000Y-92350000D03*
%TO.P,U4,26,IO2_12P*%
%TO.N,unconnected-(U4-Pad26)*%
X116710000Y-92350000D03*
%TO.P,U4,27,IO2_13N*%
%TO.N,unconnected-(U4-Pad27)*%
X114170000Y-94890000D03*
%TO.P,U4,28,IO2_13P*%
%TO.N,unconnected-(U4-Pad28)*%
X116710000Y-94890000D03*
%TO.P,U4,29,IO2_14N*%
%TO.N,/Pmod3_6*%
X114170000Y-97430000D03*
%TO.P,U4,30,IO2_14P*%
%TO.N,/Pmod3_7*%
X116710000Y-97430000D03*
%TO.P,U4,31,IO2_15N*%
%TO.N,/Pmod3_4*%
X114170000Y-99970000D03*
%TO.P,U4,32,IO2_15P*%
%TO.N,/Pmod3_5*%
X116710000Y-99970000D03*
%TO.P,U4,33,IO2_16N*%
%TO.N,/Pmod3_2*%
X114170000Y-102510000D03*
%TO.P,U4,34,IO2_16P*%
%TO.N,/Pmod3_3*%
X116710000Y-102510000D03*
%TO.P,U4,35,IO2_17N*%
%TO.N,/Pmod3_0*%
X114170000Y-105050000D03*
%TO.P,U4,36,IO2_17P*%
%TO.N,/Pmod3_1*%
X116710000Y-105050000D03*
%TO.P,U4,37,GND*%
%TO.N,GND*%
X114170000Y-107590000D03*
%TO.P,U4,38,GND*%
X116710000Y-107590000D03*
%TO.P,U4,39,VCC_33*%
%TO.N,+3V3*%
X114170000Y-110130000D03*
%TO.P,U4,40,VCC_33*%
X116710000Y-110130000D03*
%TD*%
%TO.P,U3,1,VCC*%
%TO.N,/Pmod1_6*%
X128730000Y-56790000D03*
%TO.P,U3,2,GND*%
%TO.N,/Pmod1_4*%
X128730000Y-59330000D03*
%TO.P,U3,3,1*%
%TO.N,/Pmod1_2*%
X128730000Y-61870000D03*
%TO.P,U3,4,2*%
%TO.N,/Pmod1_0*%
X128730000Y-64410000D03*
%TO.P,U3,5,3*%
%TO.N,GND*%
X128730000Y-66950000D03*
%TO.P,U3,6,4*%
%TO.N,+3V3*%
X128730000Y-69490000D03*
%TO.P,U3,7,5*%
X131270000Y-69490000D03*
%TO.P,U3,8,6*%
%TO.N,GND*%
X131270000Y-66950000D03*
%TO.P,U3,9,7*%
%TO.N,/Pmod1_1*%
X131270000Y-64410000D03*
%TO.P,U3,10,8*%
%TO.N,/Pmod1_3*%
X131270000Y-61870000D03*
%TO.P,U3,11,GND*%
%TO.N,/Pmod1_5*%
X131270000Y-59330000D03*
%TO.P,U3,12,VCC*%
%TO.N,/Pmod1_7*%
X131270000Y-56790000D03*
%TD*%
D12*
%TO.N,+3V3*%
X119870000Y-110130000D02*
X125000000Y-110130000D01*
X125380000Y-95700000D02*
X128730000Y-92350000D01*
X125200000Y-95700000D02*
X125200000Y-73020000D01*
X125200000Y-104800000D02*
X125200000Y-95700000D01*
X114170000Y-110130000D02*
X116710000Y-110130000D01*
X128730000Y-69490000D02*
X131270000Y-69490000D01*
X128730000Y-115210000D02*
X131270000Y-115210000D01*
X125200000Y-95700000D02*
X125380000Y-95700000D01*
X128730000Y-92350000D02*
X131270000Y-92350000D01*
X125000000Y-110130000D02*
X128730000Y-115210000D01*
X119870000Y-110130000D02*
X125200000Y-104800000D01*
X125200000Y-73020000D02*
X128730000Y-69490000D01*
X116710000Y-110130000D02*
X119870000Y-110130000D01*
%TD*%
%TA.AperFunction,Conductor*%
%TO.N,GND*%
G36*
X133942121Y-53020002D02*
G01*
X133988614Y-53073658D01*
X134000000Y-53126000D01*
X134000000Y-116874000D01*
X133979998Y-116942121D01*
X133926342Y-116988614D01*
X133874000Y-117000000D01*
X126126000Y-117000000D01*
X126057879Y-116979998D01*
X126011386Y-116926342D01*
X126000000Y-116874000D01*
X126000000Y-113158012D01*
X126020002Y-113089891D01*
X126073658Y-113043398D01*
X126143932Y-113033294D01*
X126208512Y-113062788D01*
X126227561Y-113083438D01*
X126985681Y-114115944D01*
X127488060Y-114800150D01*
X127512254Y-114866897D01*
X127508204Y-114907333D01*
X127487308Y-114985316D01*
X127487307Y-114985323D01*
X127485885Y-114990629D01*
X127466693Y-115210000D01*
X127485885Y-115429371D01*
X127542880Y-115642076D01*
X127545205Y-115647061D01*
X127633618Y-115836666D01*
X127633621Y-115836671D01*
X127635944Y-115841653D01*
X127639100Y-115846160D01*
X127639101Y-115846162D01*
X127738769Y-115988502D01*
X127762251Y-116022038D01*
X127917962Y-116177749D01*
X128098346Y-116304056D01*
X128297924Y-116397120D01*
X128510629Y-116454115D01*
X128730000Y-116473307D01*
X128949371Y-116454115D01*
X129162076Y-116397120D01*
X129361654Y-116304056D01*
X129542038Y-116177749D01*
X129697749Y-116022038D01*
X129700908Y-116017527D01*
X129704284Y-116013504D01*
X129763395Y-115974181D01*
X129800802Y-115968500D01*
X130199198Y-115968500D01*
X130267319Y-115988502D01*
X130295716Y-116013504D01*
X130299092Y-116017527D01*
X130302251Y-116022038D01*
X130457962Y-116177749D01*
X130638346Y-116304056D01*
X130837924Y-116397120D01*
X131050629Y-116454115D01*
X131270000Y-116473307D01*
X131489371Y-116454115D01*
X131702076Y-116397120D01*
X131901654Y-116304056D01*
X132082038Y-116177749D01*
X132237749Y-116022038D01*
X132261232Y-115988502D01*
X132360899Y-115846162D01*
X132360900Y-115846160D01*
X132364056Y-115841653D01*
X132366379Y-115836671D01*
X132366382Y-115836666D01*
X132454795Y-115647061D01*
X132457120Y-115642076D01*
X132514115Y-115429371D01*
X132533307Y-115210000D01*
X132514115Y-114990629D01*
X132457120Y-114777924D01*
X132413585Y-114684562D01*
X132366382Y-114583334D01*
X132366379Y-114583329D01*
X132364056Y-114578347D01*
X132271259Y-114445819D01*
X132240908Y-114402473D01*
X132240906Y-114402470D01*
X132237749Y-114397962D01*
X132082038Y-114242251D01*
X131901654Y-114115944D01*
X131702076Y-114022880D01*
X131489371Y-113965885D01*
X131270000Y-113946693D01*
X131050629Y-113965885D01*
X130837924Y-114022880D01*
X130744562Y-114066415D01*
X130643334Y-114113618D01*
X130643329Y-114113621D01*
X130638347Y-114115944D01*
X130633840Y-114119100D01*
X130633838Y-114119101D01*
X130462473Y-114239092D01*
X130462470Y-114239094D01*
X130457962Y-114242251D01*
X130302251Y-114397962D01*
X130299094Y-114402471D01*
X130295716Y-114406496D01*
X130236605Y-114445819D01*
X130199198Y-114451500D01*
X129800802Y-114451500D01*
X129732681Y-114431498D01*
X129704284Y-114406496D01*
X129700906Y-114402471D01*
X129697749Y-114397962D01*
X129542038Y-114242251D01*
X129361654Y-114115944D01*
X129162076Y-114022880D01*
X128949371Y-113965885D01*
X128875652Y-113959436D01*
X128801165Y-113952919D01*
X128735046Y-113927056D01*
X128710583Y-113901970D01*
X125941006Y-110130000D01*
X127466693Y-110130000D01*
X127485885Y-110349371D01*
X127542880Y-110562076D01*
X127545205Y-110567061D01*
X127633618Y-110756666D01*
X127633621Y-110756671D01*
X127635944Y-110761653D01*
X127639100Y-110766160D01*
X127639101Y-110766162D01*
X127738769Y-110908502D01*
X127762251Y-110942038D01*
X127917962Y-111097749D01*
X128098346Y-111224056D01*
X128297924Y-111317120D01*
X128510629Y-111374115D01*
X128730000Y-111393307D01*
X128949371Y-111374115D01*
X129162076Y-111317120D01*
X129361654Y-111224056D01*
X129542038Y-111097749D01*
X129697749Y-110942038D01*
X129721232Y-110908502D01*
X129820899Y-110766162D01*
X129820900Y-110766160D01*
X129824056Y-110761653D01*
X129826379Y-110756671D01*
X129826382Y-110756666D01*
X129885805Y-110629231D01*
X129932722Y-110575946D01*
X130000999Y-110556485D01*
X130068959Y-110577027D01*
X130114195Y-110629231D01*
X130173618Y-110756666D01*
X130173621Y-110756671D01*
X130175944Y-110761653D01*
X130179100Y-110766160D01*
X130179101Y-110766162D01*
X130278769Y-110908502D01*
X130302251Y-110942038D01*
X130457962Y-111097749D01*
X130638346Y-111224056D01*
X130837924Y-111317120D01*
X131050629Y-111374115D01*
X131270000Y-111393307D01*
X131489371Y-111374115D01*
X131702076Y-111317120D01*
X131901654Y-111224056D01*
X132082038Y-111097749D01*
X132237749Y-110942038D01*
X132261232Y-110908502D01*
X132360899Y-110766162D01*
X132360900Y-110766160D01*
X132364056Y-110761653D01*
X132366379Y-110756671D01*
X132366382Y-110756666D01*
X132454795Y-110567061D01*
X132457120Y-110562076D01*
X132514115Y-110349371D01*
X132533307Y-110130000D01*
X132514115Y-109910629D01*
X132457120Y-109697924D01*
X132373669Y-109518962D01*
X132366382Y-109503334D01*
X132366379Y-109503329D01*
X132364056Y-109498347D01*
X132359148Y-109491338D01*
X132240908Y-109322473D01*
X132240906Y-109322470D01*
X132237749Y-109317962D01*
X132082038Y-109162251D01*
X132073690Y-109156405D01*
X132002759Y-109106739D01*
X131901654Y-109035944D01*
X131896672Y-109033621D01*
X131896667Y-109033618D01*
X131769232Y-108974195D01*
X131715947Y-108927278D01*
X131696486Y-108859001D01*
X131717028Y-108791041D01*
X131769232Y-108745805D01*
X131896667Y-108686382D01*
X131896672Y-108686379D01*
X131901654Y-108684056D01*
X132082038Y-108557749D01*
X132237749Y-108402038D01*
X132364056Y-108221653D01*
X132366379Y-108216671D01*
X132366382Y-108216666D01*
X132454795Y-108027061D01*
X132457120Y-108022076D01*
X132514115Y-107809371D01*
X132533307Y-107590000D01*
X132514115Y-107370629D01*
X132457120Y-107157924D01*
X132413585Y-107064562D01*
X132366382Y-106963334D01*
X132366379Y-106963329D01*
X132364056Y-106958347D01*
X132237749Y-106777962D01*
X132082038Y-106622251D01*
X131901654Y-106495944D01*
X131896672Y-106493621D01*
X131896667Y-106493618D01*
X131769232Y-106434195D01*
X131715947Y-106387278D01*
X131696486Y-106319001D01*
X131717028Y-106251041D01*
X131769232Y-106205805D01*
X131896667Y-106146382D01*
X131896672Y-106146379D01*
X131901654Y-106144056D01*
X132082038Y-106017749D01*
X132237749Y-105862038D01*
X132364056Y-105681653D01*
X132366379Y-105676671D01*
X132366382Y-105676666D01*
X132454795Y-105487061D01*
X132457120Y-105482076D01*
X132514115Y-105269371D01*
X132533307Y-105050000D01*
X132514115Y-104830629D01*
X132457120Y-104617924D01*
X132395519Y-104485819D01*
X132366382Y-104423334D01*
X132366379Y-104423329D01*
X132364056Y-104418347D01*
X132237749Y-104237962D01*
X132082038Y-104082251D01*
X131901654Y-103955944D01*
X131896672Y-103953621D01*
X131896667Y-103953618D01*
X131769232Y-103894195D01*
X131715947Y-103847278D01*
X131696486Y-103779001D01*
X131717028Y-103711041D01*
X131769232Y-103665805D01*
X131896667Y-103606382D01*
X131896672Y-103606379D01*
X131901654Y-103604056D01*
X132082038Y-103477749D01*
X132237749Y-103322038D01*
X132364056Y-103141653D01*
X132366379Y-103136671D01*
X132366382Y-103136666D01*
X132454795Y-102947061D01*
X132457120Y-102942076D01*
X132514115Y-102729371D01*
X132533307Y-102510000D01*
X132514115Y-102290629D01*
X132457120Y-102077924D01*
X132413585Y-101984562D01*
X132366382Y-101883334D01*
X132366379Y-101883329D01*
X132364056Y-101878347D01*
X132237749Y-101697962D01*
X132082038Y-101542251D01*
X131901654Y-101415944D01*
X131702076Y-101322880D01*
X131489371Y-101265885D01*
X131270000Y-101246693D01*
X131050629Y-101265885D01*
X130837924Y-101322880D01*
X130770769Y-101354195D01*
X130643334Y-101413618D01*
X130643329Y-101413621D01*
X130638347Y-101415944D01*
X130633840Y-101419100D01*
X130633838Y-101419101D01*
X130462473Y-101539092D01*
X130462470Y-101539094D01*
X130457962Y-101542251D01*
X130302251Y-101697962D01*
X130175944Y-101878347D01*
X130173621Y-101883329D01*
X130173618Y-101883334D01*
X130114195Y-102010769D01*
X130067278Y-102064054D01*
X129999001Y-102083515D01*
X129931041Y-102062973D01*
X129885805Y-102010769D01*
X129826382Y-101883334D01*
X129826379Y-101883329D01*
X129824056Y-101878347D01*
X129697749Y-101697962D01*
X129542038Y-101542251D01*
X129361654Y-101415944D01*
X129162076Y-101322880D01*
X128949371Y-101265885D01*
X128730000Y-101246693D01*
X128510629Y-101265885D01*
X128297924Y-101322880D01*
X128230769Y-101354195D01*
X128103334Y-101413618D01*
X128103329Y-101413621D01*
X128098347Y-101415944D01*
X128093840Y-101419100D01*
X128093838Y-101419101D01*
X127922473Y-101539092D01*
X127922470Y-101539094D01*
X127917962Y-101542251D01*
X127762251Y-101697962D01*
X127635944Y-101878347D01*
X127633621Y-101883329D01*
X127633618Y-101883334D01*
X127586415Y-101984562D01*
X127542880Y-102077924D01*
X127485885Y-102290629D01*
X127466693Y-102510000D01*
X127485885Y-102729371D01*
X127542880Y-102942076D01*
X127545205Y-102947061D01*
X127633618Y-103136666D01*
X127633621Y-103136671D01*
X127635944Y-103141653D01*
X127762251Y-103322038D01*
X127917962Y-103477749D01*
X128098346Y-103604056D01*
X128103328Y-103606379D01*
X128103333Y-103606382D01*
X128230768Y-103665805D01*
X128284053Y-103712722D01*
X128303514Y-103780999D01*
X128282972Y-103848959D01*
X128230768Y-103894195D01*
X128103334Y-103953618D01*
X128103329Y-103953621D01*
X128098347Y-103955944D01*
X128093840Y-103959100D01*
X128093838Y-103959101D01*
X127922473Y-104079092D01*
X127922470Y-104079094D01*
X127917962Y-104082251D01*
X127762251Y-104237962D01*
X127635944Y-104418347D01*
X127633621Y-104423329D01*
X127633618Y-104423334D01*
X127604481Y-104485819D01*
X127542880Y-104617924D01*
X127485885Y-104830629D01*
X127466693Y-105050000D01*
X127485885Y-105269371D01*
X127542880Y-105482076D01*
X127545205Y-105487061D01*
X127633618Y-105676666D01*
X127633621Y-105676671D01*
X127635944Y-105681653D01*
X127762251Y-105862038D01*
X127917962Y-106017749D01*
X128098346Y-106144056D01*
X128103328Y-106146379D01*
X128103333Y-106146382D01*
X128230768Y-106205805D01*
X128284053Y-106252722D01*
X128303514Y-106320999D01*
X128282972Y-106388959D01*
X128230768Y-106434195D01*
X128103334Y-106493618D01*
X128103329Y-106493621D01*
X128098347Y-106495944D01*
X128093840Y-106499100D01*
X128093838Y-106499101D01*
X127922473Y-106619092D01*
X127922470Y-106619094D01*
X127917962Y-106622251D01*
X127762251Y-106777962D01*
X127635944Y-106958347D01*
X127633621Y-106963329D01*
X127633618Y-106963334D01*
X127586415Y-107064562D01*
X127542880Y-107157924D01*
X127485885Y-107370629D01*
X127466693Y-107590000D01*
X127485885Y-107809371D01*
X127542880Y-108022076D01*
X127545205Y-108027061D01*
X127633618Y-108216666D01*
X127633621Y-108216671D01*
X127635944Y-108221653D01*
X127762251Y-108402038D01*
X127917962Y-108557749D01*
X128098346Y-108684056D01*
X128103328Y-108686379D01*
X128103333Y-108686382D01*
X128230768Y-108745805D01*
X128284053Y-108792722D01*
X128303514Y-108860999D01*
X128282972Y-108928959D01*
X128230768Y-108974195D01*
X128103334Y-109033618D01*
X128103329Y-109033621D01*
X128098347Y-109035944D01*
X128093840Y-109039100D01*
X128093838Y-109039101D01*
X127922473Y-109159092D01*
X127922470Y-109159094D01*
X127917962Y-109162251D01*
X127762251Y-109317962D01*
X127759094Y-109322470D01*
X127759092Y-109322473D01*
X127640852Y-109491338D01*
X127635944Y-109498347D01*
X127633621Y-109503329D01*
X127633618Y-109503334D01*
X127626331Y-109518962D01*
X127542880Y-109697924D01*
X127485885Y-109910629D01*
X127466693Y-110130000D01*
X125941006Y-110130000D01*
X125663785Y-109752444D01*
X125663498Y-109752002D01*
X125663343Y-109751636D01*
X125597002Y-109661489D01*
X125585176Y-109645383D01*
X125585061Y-109645260D01*
X125585015Y-109645201D01*
X125562849Y-109615081D01*
X125558508Y-109609182D01*
X125530642Y-109585508D01*
X125519984Y-109575320D01*
X125500055Y-109553902D01*
X125500048Y-109553896D01*
X125495067Y-109548543D01*
X125463862Y-109527683D01*
X125452313Y-109518962D01*
X125429295Y-109499407D01*
X125429292Y-109499405D01*
X125423715Y-109494667D01*
X125391142Y-109478034D01*
X125378421Y-109470569D01*
X125354111Y-109454318D01*
X125354109Y-109454317D01*
X125348025Y-109450250D01*
X125312873Y-109437134D01*
X125299622Y-109431301D01*
X125272712Y-109417560D01*
X125272710Y-109417559D01*
X125266192Y-109414231D01*
X125230669Y-109405539D01*
X125216570Y-109401200D01*
X125182314Y-109388418D01*
X125168984Y-109386743D01*
X125145074Y-109383738D01*
X125130844Y-109381112D01*
X125094390Y-109372192D01*
X125088785Y-109371844D01*
X125088783Y-109371844D01*
X125085175Y-109371620D01*
X125085165Y-109371620D01*
X125083236Y-109371500D01*
X125055566Y-109371500D01*
X125039857Y-109370517D01*
X125006823Y-109366366D01*
X124965795Y-109370778D01*
X124952325Y-109371500D01*
X122005371Y-109371500D01*
X121937250Y-109351498D01*
X121890757Y-109297842D01*
X121880653Y-109227568D01*
X121910147Y-109162988D01*
X121916276Y-109156405D01*
X125688911Y-105383770D01*
X125703323Y-105371384D01*
X125714918Y-105362851D01*
X125714923Y-105362846D01*
X125720818Y-105358508D01*
X125725557Y-105352930D01*
X125725560Y-105352927D01*
X125755035Y-105318232D01*
X125761965Y-105310716D01*
X125767660Y-105305021D01*
X125785281Y-105282749D01*
X125788072Y-105279345D01*
X125830591Y-105229297D01*
X125830592Y-105229295D01*
X125835333Y-105223715D01*
X125838661Y-105217199D01*
X125842028Y-105212150D01*
X125845195Y-105207021D01*
X125849734Y-105201284D01*
X125880655Y-105135125D01*
X125882561Y-105131225D01*
X125915769Y-105066192D01*
X125917508Y-105059084D01*
X125919607Y-105053441D01*
X125921524Y-105047678D01*
X125924622Y-105041050D01*
X125939487Y-104969583D01*
X125940457Y-104965299D01*
X125956473Y-104899845D01*
X125957808Y-104894390D01*
X125958500Y-104883236D01*
X125958536Y-104883238D01*
X125958775Y-104879245D01*
X125959149Y-104875053D01*
X125960640Y-104867885D01*
X125958546Y-104790479D01*
X125958500Y-104787072D01*
X125958500Y-96246371D01*
X125978502Y-96178250D01*
X125995405Y-96157276D01*
X128513163Y-93639518D01*
X128575475Y-93605492D01*
X128613239Y-93603092D01*
X128724524Y-93612828D01*
X128724525Y-93612828D01*
X128730000Y-93613307D01*
X128949371Y-93594115D01*
X129162076Y-93537120D01*
X129361654Y-93444056D01*
X129542038Y-93317749D01*
X129697749Y-93162038D01*
X129700908Y-93157527D01*
X129704284Y-93153504D01*
X129763395Y-93114181D01*
X129800802Y-93108500D01*
X130199198Y-93108500D01*
X130267319Y-93128502D01*
X130295716Y-93153504D01*
X130299092Y-93157527D01*
X130302251Y-93162038D01*
X130457962Y-93317749D01*
X130638346Y-93444056D01*
X130837924Y-93537120D01*
X131050629Y-93594115D01*
X131270000Y-93613307D01*
X131489371Y-93594115D01*
X131702076Y-93537120D01*
X131901654Y-93444056D01*
X132082038Y-93317749D01*
X132237749Y-93162038D01*
X132261232Y-93128502D01*
X132360899Y-92986162D01*
X132360900Y-92986160D01*
X132364056Y-92981653D01*
X132366379Y-92976671D01*
X132366382Y-92976666D01*
X132454795Y-92787061D01*
X132457120Y-92782076D01*
X132514115Y-92569371D01*
X132533307Y-92350000D01*
X132514115Y-92130629D01*
X132457120Y-91917924D01*
X132413585Y-91824562D01*
X132366382Y-91723334D01*
X132366379Y-91723329D01*
X132364056Y-91718347D01*
X132271259Y-91585819D01*
X132240908Y-91542473D01*
X132240906Y-91542470D01*
X132237749Y-91537962D01*
X132082038Y-91382251D01*
X131901654Y-91255944D01*
X131702076Y-91162880D01*
X131489371Y-91105885D01*
X131270000Y-91086693D01*
X131050629Y-91105885D01*
X130837924Y-91162880D01*
X130770769Y-91194195D01*
X130643334Y-91253618D01*
X130643329Y-91253621D01*
X130638347Y-91255944D01*
X130633840Y-91259100D01*
X130633838Y-91259101D01*
X130462473Y-91379092D01*
X130462470Y-91379094D01*
X130457962Y-91382251D01*
X130302251Y-91537962D01*
X130299094Y-91542471D01*
X130295716Y-91546496D01*
X130236605Y-91585819D01*
X130199198Y-91591500D01*
X129800802Y-91591500D01*
X129732681Y-91571498D01*
X129704284Y-91546496D01*
X129700906Y-91542471D01*
X129697749Y-91537962D01*
X129542038Y-91382251D01*
X129361654Y-91255944D01*
X129162076Y-91162880D01*
X128949371Y-91105885D01*
X128730000Y-91086693D01*
X128510629Y-91105885D01*
X128297924Y-91162880D01*
X128230769Y-91194195D01*
X128103334Y-91253618D01*
X128103329Y-91253621D01*
X128098347Y-91255944D01*
X128093840Y-91259100D01*
X128093838Y-91259101D01*
X127922473Y-91379092D01*
X127922470Y-91379094D01*
X127917962Y-91382251D01*
X127762251Y-91537962D01*
X127759094Y-91542470D01*
X127759092Y-91542473D01*
X127728741Y-91585819D01*
X127635944Y-91718347D01*
X127633621Y-91723329D01*
X127633618Y-91723334D01*
X127586415Y-91824562D01*
X127542880Y-91917924D01*
X127485885Y-92130629D01*
X127466693Y-92350000D01*
X127467172Y-92355475D01*
X127467172Y-92355476D01*
X127476908Y-92466761D01*
X127462919Y-92536365D01*
X127440482Y-92566837D01*
X126173595Y-93833724D01*
X126111283Y-93867750D01*
X126040468Y-93862685D01*
X125983632Y-93820138D01*
X125958821Y-93753618D01*
X125958500Y-93744629D01*
X125958500Y-87270000D01*
X127466693Y-87270000D01*
X127485885Y-87489371D01*
X127542880Y-87702076D01*
X127545205Y-87707061D01*
X127633618Y-87896666D01*
X127633621Y-87896671D01*
X127635944Y-87901653D01*
X127762251Y-88082038D01*
X127917962Y-88237749D01*
X128098346Y-88364056D01*
X128297924Y-88457120D01*
X128510629Y-88514115D01*
X128730000Y-88533307D01*
X128949371Y-88514115D01*
X129162076Y-88457120D01*
X129361654Y-88364056D01*
X129542038Y-88237749D01*
X129697749Y-88082038D01*
X129824056Y-87901653D01*
X129826379Y-87896671D01*
X129826382Y-87896666D01*
X129885805Y-87769231D01*
X129932722Y-87715946D01*
X130000999Y-87696485D01*
X130068959Y-87717027D01*
X130114195Y-87769231D01*
X130173618Y-87896666D01*
X130173621Y-87896671D01*
X130175944Y-87901653D01*
X130302251Y-88082038D01*
X130457962Y-88237749D01*
X130638346Y-88364056D01*
X130837924Y-88457120D01*
X131050629Y-88514115D01*
X131270000Y-88533307D01*
X131489371Y-88514115D01*
X131702076Y-88457120D01*
X131901654Y-88364056D01*
X132082038Y-88237749D01*
X132237749Y-88082038D01*
X132364056Y-87901653D01*
X132366379Y-87896671D01*
X132366382Y-87896666D01*
X132454795Y-87707061D01*
X132457120Y-87702076D01*
X132514115Y-87489371D01*
X132533307Y-87270000D01*
X132514115Y-87050629D01*
X132457120Y-86837924D01*
X132413585Y-86744562D01*
X132366382Y-86643334D01*
X132366379Y-86643329D01*
X132364056Y-86638347D01*
X132237749Y-86457962D01*
X132082038Y-86302251D01*
X131901654Y-86175944D01*
X131896672Y-86173621D01*
X131896667Y-86173618D01*
X131769232Y-86114195D01*
X131715947Y-86067278D01*
X131696486Y-85999001D01*
X131717028Y-85931041D01*
X131769232Y-85885805D01*
X131896667Y-85826382D01*
X131896672Y-85826379D01*
X131901654Y-85824056D01*
X132082038Y-85697749D01*
X132237749Y-85542038D01*
X132364056Y-85361653D01*
X132366379Y-85356671D01*
X132366382Y-85356666D01*
X132454795Y-85167061D01*
X132457120Y-85162076D01*
X132514115Y-84949371D01*
X132533307Y-84730000D01*
X132514115Y-84510629D01*
X132457120Y-84297924D01*
X132413585Y-84204562D01*
X132366382Y-84103334D01*
X132366379Y-84103329D01*
X132364056Y-84098347D01*
X132237749Y-83917962D01*
X132082038Y-83762251D01*
X131901654Y-83635944D01*
X131896672Y-83633621D01*
X131896667Y-83633618D01*
X131769232Y-83574195D01*
X131715947Y-83527278D01*
X131696486Y-83459001D01*
X131717028Y-83391041D01*
X131769232Y-83345805D01*
X131896667Y-83286382D01*
X131896672Y-83286379D01*
X131901654Y-83284056D01*
X132082038Y-83157749D01*
X132237749Y-83002038D01*
X132364056Y-82821653D01*
X132366379Y-82816671D01*
X132366382Y-82816666D01*
X132454795Y-82627061D01*
X132457120Y-82622076D01*
X132514115Y-82409371D01*
X132533307Y-82190000D01*
X132514115Y-81970629D01*
X132457120Y-81757924D01*
X132413585Y-81664562D01*
X132366382Y-81563334D01*
X132366379Y-81563329D01*
X132364056Y-81558347D01*
X132237749Y-81377962D01*
X132082038Y-81222251D01*
X131901654Y-81095944D01*
X131896672Y-81093621D01*
X131896667Y-81093618D01*
X131769232Y-81034195D01*
X131715947Y-80987278D01*
X131696486Y-80919001D01*
X131717028Y-80851041D01*
X131769232Y-80805805D01*
X131896667Y-80746382D01*
X131896672Y-80746379D01*
X131901654Y-80744056D01*
X132082038Y-80617749D01*
X132237749Y-80462038D01*
X132364056Y-80281653D01*
X132366379Y-80276671D01*
X132366382Y-80276666D01*
X132454795Y-80087061D01*
X132457120Y-80082076D01*
X132514115Y-79869371D01*
X132533307Y-79650000D01*
X132514115Y-79430629D01*
X132457120Y-79217924D01*
X132413585Y-79124562D01*
X132366382Y-79023334D01*
X132366379Y-79023329D01*
X132364056Y-79018347D01*
X132237749Y-78837962D01*
X132082038Y-78682251D01*
X131901654Y-78555944D01*
X131702076Y-78462880D01*
X131489371Y-78405885D01*
X131270000Y-78386693D01*
X131050629Y-78405885D01*
X130837924Y-78462880D01*
X130770769Y-78494195D01*
X130643334Y-78553618D01*
X130643329Y-78553621D01*
X130638347Y-78555944D01*
X130633840Y-78559100D01*
X130633838Y-78559101D01*
X130462473Y-78679092D01*
X130462470Y-78679094D01*
X130457962Y-78682251D01*
X130302251Y-78837962D01*
X130175944Y-79018347D01*
X130173621Y-79023329D01*
X130173618Y-79023334D01*
X130114195Y-79150769D01*
X130067278Y-79204054D01*
X129999001Y-79223515D01*
X129931041Y-79202973D01*
X129885805Y-79150769D01*
X129826382Y-79023334D01*
X129826379Y-79023329D01*
X129824056Y-79018347D01*
X129697749Y-78837962D01*
X129542038Y-78682251D01*
X129361654Y-78555944D01*
X129162076Y-78462880D01*
X128949371Y-78405885D01*
X128730000Y-78386693D01*
X128510629Y-78405885D01*
X128297924Y-78462880D01*
X128230769Y-78494195D01*
X128103334Y-78553618D01*
X128103329Y-78553621D01*
X128098347Y-78555944D01*
X128093840Y-78559100D01*
X128093838Y-78559101D01*
X127922473Y-78679092D01*
X127922470Y-78679094D01*
X127917962Y-78682251D01*
X127762251Y-78837962D01*
X127635944Y-79018347D01*
X127633621Y-79023329D01*
X127633618Y-79023334D01*
X127586415Y-79124562D01*
X127542880Y-79217924D01*
X127485885Y-79430629D01*
X127466693Y-79650000D01*
X127485885Y-79869371D01*
X127542880Y-80082076D01*
X127545205Y-80087061D01*
X127633618Y-80276666D01*
X127633621Y-80276671D01*
X127635944Y-80281653D01*
X127762251Y-80462038D01*
X127917962Y-80617749D01*
X128098346Y-80744056D01*
X128103328Y-80746379D01*
X128103333Y-80746382D01*
X128230768Y-80805805D01*
X128284053Y-80852722D01*
X128303514Y-80920999D01*
X128282972Y-80988959D01*
X128230768Y-81034195D01*
X128103334Y-81093618D01*
X128103329Y-81093621D01*
X128098347Y-81095944D01*
X128093840Y-81099100D01*
X128093838Y-81099101D01*
X127922473Y-81219092D01*
X127922470Y-81219094D01*
X127917962Y-81222251D01*
X127762251Y-81377962D01*
X127635944Y-81558347D01*
X127633621Y-81563329D01*
X127633618Y-81563334D01*
X127586415Y-81664562D01*
X127542880Y-81757924D01*
X127485885Y-81970629D01*
X127466693Y-82190000D01*
X127485885Y-82409371D01*
X127542880Y-82622076D01*
X127545205Y-82627061D01*
X127633618Y-82816666D01*
X127633621Y-82816671D01*
X127635944Y-82821653D01*
X127762251Y-83002038D01*
X127917962Y-83157749D01*
X128098346Y-83284056D01*
X128103328Y-83286379D01*
X128103333Y-83286382D01*
X128230768Y-83345805D01*
X128284053Y-83392722D01*
X128303514Y-83460999D01*
X128282972Y-83528959D01*
X128230768Y-83574195D01*
X128103334Y-83633618D01*
X128103329Y-83633621D01*
X128098347Y-83635944D01*
X128093840Y-83639100D01*
X128093838Y-83639101D01*
X127922473Y-83759092D01*
X127922470Y-83759094D01*
X127917962Y-83762251D01*
X127762251Y-83917962D01*
X127635944Y-84098347D01*
X127633621Y-84103329D01*
X127633618Y-84103334D01*
X127586415Y-84204562D01*
X127542880Y-84297924D01*
X127485885Y-84510629D01*
X127466693Y-84730000D01*
X127485885Y-84949371D01*
X127542880Y-85162076D01*
X127545205Y-85167061D01*
X127633618Y-85356666D01*
X127633621Y-85356671D01*
X127635944Y-85361653D01*
X127762251Y-85542038D01*
X127917962Y-85697749D01*
X128098346Y-85824056D01*
X128103328Y-85826379D01*
X128103333Y-85826382D01*
X128230768Y-85885805D01*
X128284053Y-85932722D01*
X128303514Y-86000999D01*
X128282972Y-86068959D01*
X128230768Y-86114195D01*
X128103334Y-86173618D01*
X128103329Y-86173621D01*
X128098347Y-86175944D01*
X128093840Y-86179100D01*
X128093838Y-86179101D01*
X127922473Y-86299092D01*
X127922470Y-86299094D01*
X127917962Y-86302251D01*
X127762251Y-86457962D01*
X127635944Y-86638347D01*
X127633621Y-86643329D01*
X127633618Y-86643334D01*
X127586415Y-86744562D01*
X127542880Y-86837924D01*
X127485885Y-87050629D01*
X127466693Y-87270000D01*
X125958500Y-87270000D01*
X125958500Y-73386371D01*
X125978502Y-73318250D01*
X125995405Y-73297276D01*
X128513163Y-70779518D01*
X128575475Y-70745492D01*
X128613239Y-70743092D01*
X128724524Y-70752828D01*
X128724525Y-70752828D01*
X128730000Y-70753307D01*
X128949371Y-70734115D01*
X129162076Y-70677120D01*
X129361654Y-70584056D01*
X129542038Y-70457749D01*
X129697749Y-70302038D01*
X129700908Y-70297527D01*
X129704284Y-70293504D01*
X129763395Y-70254181D01*
X129800802Y-70248500D01*
X130199198Y-70248500D01*
X130267319Y-70268502D01*
X130295716Y-70293504D01*
X130299092Y-70297527D01*
X130302251Y-70302038D01*
X130457962Y-70457749D01*
X130638346Y-70584056D01*
X130837924Y-70677120D01*
X131050629Y-70734115D01*
X131270000Y-70753307D01*
X131489371Y-70734115D01*
X131702076Y-70677120D01*
X131901654Y-70584056D01*
X132082038Y-70457749D01*
X132237749Y-70302038D01*
X132261232Y-70268502D01*
X132360899Y-70126162D01*
X132360900Y-70126160D01*
X132364056Y-70121653D01*
X132366379Y-70116671D01*
X132366382Y-70116666D01*
X132454795Y-69927061D01*
X132457120Y-69922076D01*
X132514115Y-69709371D01*
X132533307Y-69490000D01*
X132514115Y-69270629D01*
X132457120Y-69057924D01*
X132413585Y-68964562D01*
X132366382Y-68863334D01*
X132366379Y-68863329D01*
X132364056Y-68858347D01*
X132271259Y-68725819D01*
X132240908Y-68682473D01*
X132240906Y-68682470D01*
X132237749Y-68677962D01*
X132082038Y-68522251D01*
X131901654Y-68395944D01*
X131702076Y-68302880D01*
X131489371Y-68245885D01*
X131270000Y-68226693D01*
X131050629Y-68245885D01*
X130837924Y-68302880D01*
X130770769Y-68334195D01*
X130643334Y-68393618D01*
X130643329Y-68393621D01*
X130638347Y-68395944D01*
X130633840Y-68399100D01*
X130633838Y-68399101D01*
X130462473Y-68519092D01*
X130462470Y-68519094D01*
X130457962Y-68522251D01*
X130302251Y-68677962D01*
X130299094Y-68682471D01*
X130295716Y-68686496D01*
X130236605Y-68725819D01*
X130199198Y-68731500D01*
X129800802Y-68731500D01*
X129732681Y-68711498D01*
X129704284Y-68686496D01*
X129700906Y-68682471D01*
X129697749Y-68677962D01*
X129542038Y-68522251D01*
X129361654Y-68395944D01*
X129162076Y-68302880D01*
X128949371Y-68245885D01*
X128730000Y-68226693D01*
X128510629Y-68245885D01*
X128297924Y-68302880D01*
X128230769Y-68334195D01*
X128103334Y-68393618D01*
X128103329Y-68393621D01*
X128098347Y-68395944D01*
X128093840Y-68399100D01*
X128093838Y-68399101D01*
X127922473Y-68519092D01*
X127922470Y-68519094D01*
X127917962Y-68522251D01*
X127762251Y-68677962D01*
X127759094Y-68682470D01*
X127759092Y-68682473D01*
X127728741Y-68725819D01*
X127635944Y-68858347D01*
X127633621Y-68863329D01*
X127633618Y-68863334D01*
X127586415Y-68964562D01*
X127542880Y-69057924D01*
X127485885Y-69270629D01*
X127466693Y-69490000D01*
X127467172Y-69495475D01*
X127467172Y-69495476D01*
X127476908Y-69606761D01*
X127462919Y-69676365D01*
X127440482Y-69706837D01*
X124711089Y-72436230D01*
X124696677Y-72448616D01*
X124685082Y-72457149D01*
X124685077Y-72457154D01*
X124679182Y-72461492D01*
X124674443Y-72467070D01*
X124674440Y-72467073D01*
X124644965Y-72501768D01*
X124638035Y-72509284D01*
X124632340Y-72514979D01*
X124630060Y-72517861D01*
X124614719Y-72537251D01*
X124611928Y-72540655D01*
X124569409Y-72590703D01*
X124564667Y-72596285D01*
X124561339Y-72602801D01*
X124557972Y-72607850D01*
X124554805Y-72612979D01*
X124550266Y-72618716D01*
X124519345Y-72684875D01*
X124517442Y-72688769D01*
X124484231Y-72753808D01*
X124482492Y-72760916D01*
X124480393Y-72766559D01*
X124478476Y-72772322D01*
X124475378Y-72778950D01*
X124473888Y-72786112D01*
X124473888Y-72786113D01*
X124460514Y-72850412D01*
X124459544Y-72854696D01*
X124442192Y-72925610D01*
X124441500Y-72936764D01*
X124441464Y-72936762D01*
X124441225Y-72940755D01*
X124440851Y-72944947D01*
X124439360Y-72952115D01*
X124439558Y-72959432D01*
X124441454Y-73029521D01*
X124441500Y-73032928D01*
X124441500Y-95672165D01*
X124441258Y-95679966D01*
X124437453Y-95741298D01*
X124438693Y-95748514D01*
X124439680Y-95754257D01*
X124441500Y-95775596D01*
X124441500Y-104433629D01*
X124421498Y-104501750D01*
X124404595Y-104522724D01*
X119592724Y-109334595D01*
X119530412Y-109368621D01*
X119503629Y-109371500D01*
X117780802Y-109371500D01*
X117712681Y-109351498D01*
X117684284Y-109326496D01*
X117680906Y-109322471D01*
X117677749Y-109317962D01*
X117522038Y-109162251D01*
X117513690Y-109156405D01*
X117442759Y-109106739D01*
X117341654Y-109035944D01*
X117142076Y-108942880D01*
X116929371Y-108885885D01*
X116710000Y-108866693D01*
X116490629Y-108885885D01*
X116277924Y-108942880D01*
X116210769Y-108974195D01*
X116083334Y-109033618D01*
X116083329Y-109033621D01*
X116078347Y-109035944D01*
X116073840Y-109039100D01*
X116073838Y-109039101D01*
X115902473Y-109159092D01*
X115902470Y-109159094D01*
X115897962Y-109162251D01*
X115742251Y-109317962D01*
X115739094Y-109322471D01*
X115735716Y-109326496D01*
X115676605Y-109365819D01*
X115639198Y-109371500D01*
X115240802Y-109371500D01*
X115172681Y-109351498D01*
X115144284Y-109326496D01*
X115140906Y-109322471D01*
X115137749Y-109317962D01*
X114982038Y-109162251D01*
X114973690Y-109156405D01*
X114902759Y-109106739D01*
X114801654Y-109035944D01*
X114602076Y-108942880D01*
X114389371Y-108885885D01*
X114170000Y-108866693D01*
X113950629Y-108885885D01*
X113737924Y-108942880D01*
X113670769Y-108974195D01*
X113543334Y-109033618D01*
X113543329Y-109033621D01*
X113538347Y-109035944D01*
X113533840Y-109039100D01*
X113533838Y-109039101D01*
X113362473Y-109159092D01*
X113362470Y-109159094D01*
X113357962Y-109162251D01*
X113202251Y-109317962D01*
X113199094Y-109322470D01*
X113199092Y-109322473D01*
X113080852Y-109491338D01*
X113075944Y-109498347D01*
X113073621Y-109503329D01*
X113073618Y-109503334D01*
X113066331Y-109518962D01*
X112982880Y-109697924D01*
X112925885Y-109910629D01*
X112906693Y-110130000D01*
X112925885Y-110349371D01*
X112982880Y-110562076D01*
X112985205Y-110567061D01*
X113073618Y-110756666D01*
X113073621Y-110756671D01*
X113075944Y-110761653D01*
X113079100Y-110766160D01*
X113079101Y-110766162D01*
X113178769Y-110908502D01*
X113202251Y-110942038D01*
X113357962Y-111097749D01*
X113538346Y-111224056D01*
X113737924Y-111317120D01*
X113950629Y-111374115D01*
X114170000Y-111393307D01*
X114389371Y-111374115D01*
X114602076Y-111317120D01*
X114801654Y-111224056D01*
X114982038Y-111097749D01*
X115137749Y-110942038D01*
X115140908Y-110937527D01*
X115144284Y-110933504D01*
X115203395Y-110894181D01*
X115240802Y-110888500D01*
X115639198Y-110888500D01*
X115707319Y-110908502D01*
X115735716Y-110933504D01*
X115739092Y-110937527D01*
X115742251Y-110942038D01*
X115897962Y-111097749D01*
X116078346Y-111224056D01*
X116277924Y-111317120D01*
X116490629Y-111374115D01*
X116710000Y-111393307D01*
X116929371Y-111374115D01*
X117142076Y-111317120D01*
X117341654Y-111224056D01*
X117522038Y-111097749D01*
X117677749Y-110942038D01*
X117680908Y-110937527D01*
X117684284Y-110933504D01*
X117743395Y-110894181D01*
X117780802Y-110888500D01*
X119802930Y-110888500D01*
X119821880Y-110889933D01*
X119836115Y-110892099D01*
X119836119Y-110892099D01*
X119843349Y-110893199D01*
X119850641Y-110892606D01*
X119850644Y-110892606D01*
X119896018Y-110888915D01*
X119906233Y-110888500D01*
X124552122Y-110888500D01*
X124620243Y-110908502D01*
X124653685Y-110939928D01*
X126019026Y-112799428D01*
X126043220Y-112866175D01*
X126027487Y-112935406D01*
X125976823Y-112985142D01*
X125917463Y-113000000D01*
X112126000Y-113000000D01*
X112057879Y-112979998D01*
X112011386Y-112926342D01*
X112000000Y-112874000D01*
X112000000Y-105050000D01*
X112906693Y-105050000D01*
X112925885Y-105269371D01*
X112982880Y-105482076D01*
X112985205Y-105487061D01*
X113073618Y-105676666D01*
X113073621Y-105676671D01*
X113075944Y-105681653D01*
X113202251Y-105862038D01*
X113357962Y-106017749D01*
X113538346Y-106144056D01*
X113737924Y-106237120D01*
X113950629Y-106294115D01*
X114170000Y-106313307D01*
X114389371Y-106294115D01*
X114602076Y-106237120D01*
X114801654Y-106144056D01*
X114982038Y-106017749D01*
X115137749Y-105862038D01*
X115264056Y-105681653D01*
X115266379Y-105676671D01*
X115266382Y-105676666D01*
X115325805Y-105549231D01*
X115372722Y-105495946D01*
X115440999Y-105476485D01*
X115508959Y-105497027D01*
X115554195Y-105549231D01*
X115613618Y-105676666D01*
X115613621Y-105676671D01*
X115615944Y-105681653D01*
X115742251Y-105862038D01*
X115897962Y-106017749D01*
X116078346Y-106144056D01*
X116277924Y-106237120D01*
X116490629Y-106294115D01*
X116710000Y-106313307D01*
X116929371Y-106294115D01*
X117142076Y-106237120D01*
X117341654Y-106144056D01*
X117522038Y-106017749D01*
X117677749Y-105862038D01*
X117804056Y-105681653D01*
X117806379Y-105676671D01*
X117806382Y-105676666D01*
X117894795Y-105487061D01*
X117897120Y-105482076D01*
X117954115Y-105269371D01*
X117973307Y-105050000D01*
X117954115Y-104830629D01*
X117897120Y-104617924D01*
X117835519Y-104485819D01*
X117806382Y-104423334D01*
X117806379Y-104423329D01*
X117804056Y-104418347D01*
X117677749Y-104237962D01*
X117522038Y-104082251D01*
X117341654Y-103955944D01*
X117336672Y-103953621D01*
X117336667Y-103953618D01*
X117209232Y-103894195D01*
X117155947Y-103847278D01*
X117136486Y-103779001D01*
X117157028Y-103711041D01*
X117209232Y-103665805D01*
X117336667Y-103606382D01*
X117336672Y-103606379D01*
X117341654Y-103604056D01*
X117522038Y-103477749D01*
X117677749Y-103322038D01*
X117804056Y-103141653D01*
X117806379Y-103136671D01*
X117806382Y-103136666D01*
X117894795Y-102947061D01*
X117897120Y-102942076D01*
X117954115Y-102729371D01*
X117973307Y-102510000D01*
X117954115Y-102290629D01*
X117897120Y-102077924D01*
X117853585Y-101984562D01*
X117806382Y-101883334D01*
X117806379Y-101883329D01*
X117804056Y-101878347D01*
X117677749Y-101697962D01*
X117522038Y-101542251D01*
X117341654Y-101415944D01*
X117336672Y-101413621D01*
X117336667Y-101413618D01*
X117209232Y-101354195D01*
X117155947Y-101307278D01*
X117136486Y-101239001D01*
X117157028Y-101171041D01*
X117209232Y-101125805D01*
X117336667Y-101066382D01*
X117336672Y-101066379D01*
X117341654Y-101064056D01*
X117522038Y-100937749D01*
X117677749Y-100782038D01*
X117804056Y-100601653D01*
X117806379Y-100596671D01*
X117806382Y-100596666D01*
X117894795Y-100407061D01*
X117897120Y-100402076D01*
X117954115Y-100189371D01*
X117973307Y-99970000D01*
X117954115Y-99750629D01*
X117897120Y-99537924D01*
X117853585Y-99444562D01*
X117806382Y-99343334D01*
X117806379Y-99343329D01*
X117804056Y-99338347D01*
X117677749Y-99157962D01*
X117522038Y-99002251D01*
X117341654Y-98875944D01*
X117336672Y-98873621D01*
X117336667Y-98873618D01*
X117209232Y-98814195D01*
X117155947Y-98767278D01*
X117136486Y-98699001D01*
X117157028Y-98631041D01*
X117209232Y-98585805D01*
X117336667Y-98526382D01*
X117336672Y-98526379D01*
X117341654Y-98524056D01*
X117522038Y-98397749D01*
X117677749Y-98242038D01*
X117804056Y-98061653D01*
X117806379Y-98056671D01*
X117806382Y-98056666D01*
X117894795Y-97867061D01*
X117897120Y-97862076D01*
X117954115Y-97649371D01*
X117973307Y-97430000D01*
X117954115Y-97210629D01*
X117897120Y-96997924D01*
X117853585Y-96904562D01*
X117806382Y-96803334D01*
X117806379Y-96803329D01*
X117804056Y-96798347D01*
X117677749Y-96617962D01*
X117522038Y-96462251D01*
X117341654Y-96335944D01*
X117336672Y-96333621D01*
X117336667Y-96333618D01*
X117209232Y-96274195D01*
X117155947Y-96227278D01*
X117136486Y-96159001D01*
X117157028Y-96091041D01*
X117209232Y-96045805D01*
X117336667Y-95986382D01*
X117336672Y-95986379D01*
X117341654Y-95984056D01*
X117522038Y-95857749D01*
X117677749Y-95702038D01*
X117693204Y-95679967D01*
X117800899Y-95526162D01*
X117800900Y-95526160D01*
X117804056Y-95521653D01*
X117806379Y-95516671D01*
X117806382Y-95516666D01*
X117894795Y-95327061D01*
X117897120Y-95322076D01*
X117954115Y-95109371D01*
X117973307Y-94890000D01*
X117954115Y-94670629D01*
X117897120Y-94457924D01*
X117853585Y-94364562D01*
X117806382Y-94263334D01*
X117806379Y-94263329D01*
X117804056Y-94258347D01*
X117677749Y-94077962D01*
X117522038Y-93922251D01*
X117341654Y-93795944D01*
X117336672Y-93793621D01*
X117336667Y-93793618D01*
X117209232Y-93734195D01*
X117155947Y-93687278D01*
X117136486Y-93619001D01*
X117157028Y-93551041D01*
X117209232Y-93505805D01*
X117336667Y-93446382D01*
X117336672Y-93446379D01*
X117341654Y-93444056D01*
X117522038Y-93317749D01*
X117677749Y-93162038D01*
X117701232Y-93128502D01*
X117800899Y-92986162D01*
X117800900Y-92986160D01*
X117804056Y-92981653D01*
X117806379Y-92976671D01*
X117806382Y-92976666D01*
X117894795Y-92787061D01*
X117897120Y-92782076D01*
X117954115Y-92569371D01*
X117973307Y-92350000D01*
X117954115Y-92130629D01*
X117897120Y-91917924D01*
X117853585Y-91824562D01*
X117806382Y-91723334D01*
X117806379Y-91723329D01*
X117804056Y-91718347D01*
X117711259Y-91585819D01*
X117680908Y-91542473D01*
X117680906Y-91542470D01*
X117677749Y-91537962D01*
X117522038Y-91382251D01*
X117341654Y-91255944D01*
X117336672Y-91253621D01*
X117336667Y-91253618D01*
X117209232Y-91194195D01*
X117155947Y-91147278D01*
X117136486Y-91079001D01*
X117157028Y-91011041D01*
X117209232Y-90965805D01*
X117336667Y-90906382D01*
X117336672Y-90906379D01*
X117341654Y-90904056D01*
X117522038Y-90777749D01*
X117677749Y-90622038D01*
X117804056Y-90441653D01*
X117806379Y-90436671D01*
X117806382Y-90436666D01*
X117894795Y-90247061D01*
X117897120Y-90242076D01*
X117954115Y-90029371D01*
X117973307Y-89810000D01*
X117954115Y-89590629D01*
X117897120Y-89377924D01*
X117853585Y-89284562D01*
X117806382Y-89183334D01*
X117806379Y-89183329D01*
X117804056Y-89178347D01*
X117677749Y-88997962D01*
X117522038Y-88842251D01*
X117341654Y-88715944D01*
X117336672Y-88713621D01*
X117336667Y-88713618D01*
X117209232Y-88654195D01*
X117155947Y-88607278D01*
X117136486Y-88539001D01*
X117157028Y-88471041D01*
X117209232Y-88425805D01*
X117336667Y-88366382D01*
X117336672Y-88366379D01*
X117341654Y-88364056D01*
X117522038Y-88237749D01*
X117677749Y-88082038D01*
X117804056Y-87901653D01*
X117806379Y-87896671D01*
X117806382Y-87896666D01*
X117894795Y-87707061D01*
X117897120Y-87702076D01*
X117954115Y-87489371D01*
X117973307Y-87270000D01*
X117954115Y-87050629D01*
X117897120Y-86837924D01*
X117853585Y-86744562D01*
X117806382Y-86643334D01*
X117806379Y-86643329D01*
X117804056Y-86638347D01*
X117677749Y-86457962D01*
X117522038Y-86302251D01*
X117341654Y-86175944D01*
X117336672Y-86173621D01*
X117336667Y-86173618D01*
X117209232Y-86114195D01*
X117155947Y-86067278D01*
X117136486Y-85999001D01*
X117157028Y-85931041D01*
X117209232Y-85885805D01*
X117336667Y-85826382D01*
X117336672Y-85826379D01*
X117341654Y-85824056D01*
X117522038Y-85697749D01*
X117677749Y-85542038D01*
X117804056Y-85361653D01*
X117806379Y-85356671D01*
X117806382Y-85356666D01*
X117894795Y-85167061D01*
X117897120Y-85162076D01*
X117954115Y-84949371D01*
X117973307Y-84730000D01*
X117954115Y-84510629D01*
X117897120Y-84297924D01*
X117853585Y-84204562D01*
X117806382Y-84103334D01*
X117806379Y-84103329D01*
X117804056Y-84098347D01*
X117677749Y-83917962D01*
X117522038Y-83762251D01*
X117341654Y-83635944D01*
X117336672Y-83633621D01*
X117336667Y-83633618D01*
X117209232Y-83574195D01*
X117155947Y-83527278D01*
X117136486Y-83459001D01*
X117157028Y-83391041D01*
X117209232Y-83345805D01*
X117336667Y-83286382D01*
X117336672Y-83286379D01*
X117341654Y-83284056D01*
X117522038Y-83157749D01*
X117677749Y-83002038D01*
X117804056Y-82821653D01*
X117806379Y-82816671D01*
X117806382Y-82816666D01*
X117894795Y-82627061D01*
X117897120Y-82622076D01*
X117954115Y-82409371D01*
X117973307Y-82190000D01*
X117954115Y-81970629D01*
X117897120Y-81757924D01*
X117853585Y-81664562D01*
X117806382Y-81563334D01*
X117806379Y-81563329D01*
X117804056Y-81558347D01*
X117677749Y-81377962D01*
X117522038Y-81222251D01*
X117341654Y-81095944D01*
X117336672Y-81093621D01*
X117336667Y-81093618D01*
X117209232Y-81034195D01*
X117155947Y-80987278D01*
X117136486Y-80919001D01*
X117157028Y-80851041D01*
X117209232Y-80805805D01*
X117336667Y-80746382D01*
X117336672Y-80746379D01*
X117341654Y-80744056D01*
X117522038Y-80617749D01*
X117677749Y-80462038D01*
X117804056Y-80281653D01*
X117806379Y-80276671D01*
X117806382Y-80276666D01*
X117894795Y-80087061D01*
X117897120Y-80082076D01*
X117954115Y-79869371D01*
X117973307Y-79650000D01*
X117954115Y-79430629D01*
X117897120Y-79217924D01*
X117853585Y-79124562D01*
X117806382Y-79023334D01*
X117806379Y-79023329D01*
X117804056Y-79018347D01*
X117677749Y-78837962D01*
X117522038Y-78682251D01*
X117341654Y-78555944D01*
X117336672Y-78553621D01*
X117336667Y-78553618D01*
X117209232Y-78494195D01*
X117155947Y-78447278D01*
X117136486Y-78379001D01*
X117157028Y-78311041D01*
X117209232Y-78265805D01*
X117336667Y-78206382D01*
X117336672Y-78206379D01*
X117341654Y-78204056D01*
X117522038Y-78077749D01*
X117677749Y-77922038D01*
X117804056Y-77741653D01*
X117806379Y-77736671D01*
X117806382Y-77736666D01*
X117894795Y-77547061D01*
X117897120Y-77542076D01*
X117954115Y-77329371D01*
X117973307Y-77110000D01*
X117954115Y-76890629D01*
X117897120Y-76677924D01*
X117853585Y-76584562D01*
X117806382Y-76483334D01*
X117806379Y-76483329D01*
X117804056Y-76478347D01*
X117677749Y-76297962D01*
X117522038Y-76142251D01*
X117341654Y-76015944D01*
X117336672Y-76013621D01*
X117336667Y-76013618D01*
X117209232Y-75954195D01*
X117155947Y-75907278D01*
X117136486Y-75839001D01*
X117157028Y-75771041D01*
X117209232Y-75725805D01*
X117336667Y-75666382D01*
X117336672Y-75666379D01*
X117341654Y-75664056D01*
X117522038Y-75537749D01*
X117677749Y-75382038D01*
X117804056Y-75201653D01*
X117806379Y-75196671D01*
X117806382Y-75196666D01*
X117894795Y-75007061D01*
X117897120Y-75002076D01*
X117954115Y-74789371D01*
X117973307Y-74570000D01*
X117954115Y-74350629D01*
X117897120Y-74137924D01*
X117853585Y-74044562D01*
X117806382Y-73943334D01*
X117806379Y-73943329D01*
X117804056Y-73938347D01*
X117677749Y-73757962D01*
X117522038Y-73602251D01*
X117341654Y-73475944D01*
X117336672Y-73473621D01*
X117336667Y-73473618D01*
X117209232Y-73414195D01*
X117155947Y-73367278D01*
X117136486Y-73299001D01*
X117157028Y-73231041D01*
X117209232Y-73185805D01*
X117336667Y-73126382D01*
X117336672Y-73126379D01*
X117341654Y-73124056D01*
X117442759Y-73053261D01*
X117517527Y-73000908D01*
X117517529Y-73000906D01*
X117522038Y-72997749D01*
X117677749Y-72842038D01*
X117739529Y-72753808D01*
X117800899Y-72666162D01*
X117800900Y-72666160D01*
X117804056Y-72661653D01*
X117806379Y-72656671D01*
X117806382Y-72656666D01*
X117872451Y-72514979D01*
X117897120Y-72462076D01*
X117954115Y-72249371D01*
X117973307Y-72030000D01*
X117954115Y-71810629D01*
X117897120Y-71597924D01*
X117853585Y-71504562D01*
X117806382Y-71403334D01*
X117806379Y-71403329D01*
X117804056Y-71398347D01*
X117677749Y-71217962D01*
X117522038Y-71062251D01*
X117341654Y-70935944D01*
X117336672Y-70933621D01*
X117336667Y-70933618D01*
X117209232Y-70874195D01*
X117155947Y-70827278D01*
X117136486Y-70759001D01*
X117157028Y-70691041D01*
X117209232Y-70645805D01*
X117336667Y-70586382D01*
X117336672Y-70586379D01*
X117341654Y-70584056D01*
X117522038Y-70457749D01*
X117677749Y-70302038D01*
X117701232Y-70268502D01*
X117800899Y-70126162D01*
X117800900Y-70126160D01*
X117804056Y-70121653D01*
X117806379Y-70116671D01*
X117806382Y-70116666D01*
X117894795Y-69927061D01*
X117897120Y-69922076D01*
X117954115Y-69709371D01*
X117973307Y-69490000D01*
X117954115Y-69270629D01*
X117897120Y-69057924D01*
X117853585Y-68964562D01*
X117806382Y-68863334D01*
X117806379Y-68863329D01*
X117804056Y-68858347D01*
X117711259Y-68725819D01*
X117680908Y-68682473D01*
X117680906Y-68682470D01*
X117677749Y-68677962D01*
X117522038Y-68522251D01*
X117341654Y-68395944D01*
X117336672Y-68393621D01*
X117336667Y-68393618D01*
X117209232Y-68334195D01*
X117155947Y-68287278D01*
X117136486Y-68219001D01*
X117157028Y-68151041D01*
X117209232Y-68105805D01*
X117336667Y-68046382D01*
X117336672Y-68046379D01*
X117341654Y-68044056D01*
X117522038Y-67917749D01*
X117677749Y-67762038D01*
X117804056Y-67581653D01*
X117806379Y-67576671D01*
X117806382Y-67576666D01*
X117894795Y-67387061D01*
X117897120Y-67382076D01*
X117954115Y-67169371D01*
X117973307Y-66950000D01*
X117954115Y-66730629D01*
X117897120Y-66517924D01*
X117853585Y-66424562D01*
X117806382Y-66323334D01*
X117806379Y-66323329D01*
X117804056Y-66318347D01*
X117677749Y-66137962D01*
X117522038Y-65982251D01*
X117341654Y-65855944D01*
X117336672Y-65853621D01*
X117336667Y-65853618D01*
X117209232Y-65794195D01*
X117155947Y-65747278D01*
X117136486Y-65679001D01*
X117157028Y-65611041D01*
X117209232Y-65565805D01*
X117336667Y-65506382D01*
X117336672Y-65506379D01*
X117341654Y-65504056D01*
X117522038Y-65377749D01*
X117677749Y-65222038D01*
X117804056Y-65041653D01*
X117806379Y-65036671D01*
X117806382Y-65036666D01*
X117894795Y-64847061D01*
X117897120Y-64842076D01*
X117954115Y-64629371D01*
X117973307Y-64410000D01*
X127466693Y-64410000D01*
X127485885Y-64629371D01*
X127542880Y-64842076D01*
X127545205Y-64847061D01*
X127633618Y-65036666D01*
X127633621Y-65036671D01*
X127635944Y-65041653D01*
X127762251Y-65222038D01*
X127917962Y-65377749D01*
X128098346Y-65504056D01*
X128297924Y-65597120D01*
X128510629Y-65654115D01*
X128730000Y-65673307D01*
X128949371Y-65654115D01*
X129162076Y-65597120D01*
X129361654Y-65504056D01*
X129542038Y-65377749D01*
X129697749Y-65222038D01*
X129824056Y-65041653D01*
X129826379Y-65036671D01*
X129826382Y-65036666D01*
X129885805Y-64909231D01*
X129932722Y-64855946D01*
X130000999Y-64836485D01*
X130068959Y-64857027D01*
X130114195Y-64909231D01*
X130173618Y-65036666D01*
X130173621Y-65036671D01*
X130175944Y-65041653D01*
X130302251Y-65222038D01*
X130457962Y-65377749D01*
X130638346Y-65504056D01*
X130837924Y-65597120D01*
X131050629Y-65654115D01*
X131270000Y-65673307D01*
X131489371Y-65654115D01*
X131702076Y-65597120D01*
X131901654Y-65504056D01*
X132082038Y-65377749D01*
X132237749Y-65222038D01*
X132364056Y-65041653D01*
X132366379Y-65036671D01*
X132366382Y-65036666D01*
X132454795Y-64847061D01*
X132457120Y-64842076D01*
X132514115Y-64629371D01*
X132533307Y-64410000D01*
X132514115Y-64190629D01*
X132457120Y-63977924D01*
X132413585Y-63884562D01*
X132366382Y-63783334D01*
X132366379Y-63783329D01*
X132364056Y-63778347D01*
X132237749Y-63597962D01*
X132082038Y-63442251D01*
X131901654Y-63315944D01*
X131896672Y-63313621D01*
X131896667Y-63313618D01*
X131769232Y-63254195D01*
X131715947Y-63207278D01*
X131696486Y-63139001D01*
X131717028Y-63071041D01*
X131769232Y-63025805D01*
X131896667Y-62966382D01*
X131896672Y-62966379D01*
X131901654Y-62964056D01*
X132082038Y-62837749D01*
X132237749Y-62682038D01*
X132364056Y-62501653D01*
X132366379Y-62496671D01*
X132366382Y-62496666D01*
X132454795Y-62307061D01*
X132457120Y-62302076D01*
X132514115Y-62089371D01*
X132533307Y-61870000D01*
X132514115Y-61650629D01*
X132457120Y-61437924D01*
X132413585Y-61344562D01*
X132366382Y-61243334D01*
X132366379Y-61243329D01*
X132364056Y-61238347D01*
X132237749Y-61057962D01*
X132082038Y-60902251D01*
X131901654Y-60775944D01*
X131896672Y-60773621D01*
X131896667Y-60773618D01*
X131769232Y-60714195D01*
X131715947Y-60667278D01*
X131696486Y-60599001D01*
X131717028Y-60531041D01*
X131769232Y-60485805D01*
X131896667Y-60426382D01*
X131896672Y-60426379D01*
X131901654Y-60424056D01*
X132082038Y-60297749D01*
X132237749Y-60142038D01*
X132364056Y-59961653D01*
X132366379Y-59956671D01*
X132366382Y-59956666D01*
X132454795Y-59767061D01*
X132457120Y-59762076D01*
X132514115Y-59549371D01*
X132533307Y-59330000D01*
X132514115Y-59110629D01*
X132457120Y-58897924D01*
X132413585Y-58804562D01*
X132366382Y-58703334D01*
X132366379Y-58703329D01*
X132364056Y-58698347D01*
X132237749Y-58517962D01*
X132082038Y-58362251D01*
X132046995Y-58337713D01*
X131918173Y-58247511D01*
X131901654Y-58235944D01*
X131896672Y-58233621D01*
X131896667Y-58233618D01*
X131769232Y-58174195D01*
X131715947Y-58127278D01*
X131696486Y-58059001D01*
X131717028Y-57991041D01*
X131769232Y-57945805D01*
X131896667Y-57886382D01*
X131896672Y-57886379D01*
X131901654Y-57884056D01*
X132002759Y-57813261D01*
X132077527Y-57760908D01*
X132077529Y-57760906D01*
X132082038Y-57757749D01*
X132237749Y-57602038D01*
X132262138Y-57567208D01*
X132360899Y-57426162D01*
X132360900Y-57426160D01*
X132364056Y-57421653D01*
X132366379Y-57416671D01*
X132366382Y-57416666D01*
X132454795Y-57227061D01*
X132457120Y-57222076D01*
X132514115Y-57009371D01*
X132533307Y-56790000D01*
X132514115Y-56570629D01*
X132457120Y-56357924D01*
X132413585Y-56264562D01*
X132366382Y-56163334D01*
X132366379Y-56163329D01*
X132364056Y-56158347D01*
X132237749Y-55977962D01*
X132082038Y-55822251D01*
X131901654Y-55695944D01*
X131702076Y-55602880D01*
X131489371Y-55545885D01*
X131270000Y-55526693D01*
X131050629Y-55545885D01*
X130837924Y-55602880D01*
X130744562Y-55646415D01*
X130643334Y-55693618D01*
X130643329Y-55693621D01*
X130638347Y-55695944D01*
X130633840Y-55699100D01*
X130633838Y-55699101D01*
X130462473Y-55819092D01*
X130462470Y-55819094D01*
X130457962Y-55822251D01*
X130302251Y-55977962D01*
X130175944Y-56158347D01*
X130173621Y-56163329D01*
X130173618Y-56163334D01*
X130114195Y-56290769D01*
X130067278Y-56344054D01*
X129999001Y-56363515D01*
X129931041Y-56342973D01*
X129885805Y-56290769D01*
X129826382Y-56163334D01*
X129826379Y-56163329D01*
X129824056Y-56158347D01*
X129697749Y-55977962D01*
X129542038Y-55822251D01*
X129361654Y-55695944D01*
X129162076Y-55602880D01*
X128949371Y-55545885D01*
X128730000Y-55526693D01*
X128510629Y-55545885D01*
X128297924Y-55602880D01*
X128204562Y-55646415D01*
X128103334Y-55693618D01*
X128103329Y-55693621D01*
X128098347Y-55695944D01*
X128093840Y-55699100D01*
X128093838Y-55699101D01*
X127922473Y-55819092D01*
X127922470Y-55819094D01*
X127917962Y-55822251D01*
X127762251Y-55977962D01*
X127635944Y-56158347D01*
X127633621Y-56163329D01*
X127633618Y-56163334D01*
X127586415Y-56264562D01*
X127542880Y-56357924D01*
X127485885Y-56570629D01*
X127466693Y-56790000D01*
X127485885Y-57009371D01*
X127542880Y-57222076D01*
X127545205Y-57227061D01*
X127633618Y-57416666D01*
X127633621Y-57416671D01*
X127635944Y-57421653D01*
X127639100Y-57426160D01*
X127639101Y-57426162D01*
X127737863Y-57567208D01*
X127762251Y-57602038D01*
X127917962Y-57757749D01*
X127922471Y-57760906D01*
X127922473Y-57760908D01*
X127997241Y-57813261D01*
X128098346Y-57884056D01*
X128103328Y-57886379D01*
X128103333Y-57886382D01*
X128230768Y-57945805D01*
X128284053Y-57992722D01*
X128303514Y-58060999D01*
X128282972Y-58128959D01*
X128230768Y-58174195D01*
X128103334Y-58233618D01*
X128103329Y-58233621D01*
X128098347Y-58235944D01*
X128093840Y-58239100D01*
X128093838Y-58239101D01*
X127922473Y-58359092D01*
X127922470Y-58359094D01*
X127917962Y-58362251D01*
X127762251Y-58517962D01*
X127635944Y-58698347D01*
X127633621Y-58703329D01*
X127633618Y-58703334D01*
X127586415Y-58804562D01*
X127542880Y-58897924D01*
X127485885Y-59110629D01*
X127466693Y-59330000D01*
X127485885Y-59549371D01*
X127542880Y-59762076D01*
X127545205Y-59767061D01*
X127633618Y-59956666D01*
X127633621Y-59956671D01*
X127635944Y-59961653D01*
X127762251Y-60142038D01*
X127917962Y-60297749D01*
X128098346Y-60424056D01*
X128103328Y-60426379D01*
X128103333Y-60426382D01*
X128230768Y-60485805D01*
X128284053Y-60532722D01*
X128303514Y-60600999D01*
X128282972Y-60668959D01*
X128230768Y-60714195D01*
X128103334Y-60773618D01*
X128103329Y-60773621D01*
X128098347Y-60775944D01*
X128093840Y-60779100D01*
X128093838Y-60779101D01*
X127922473Y-60899092D01*
X127922470Y-60899094D01*
X127917962Y-60902251D01*
X127762251Y-61057962D01*
X127635944Y-61238347D01*
X127633621Y-61243329D01*
X127633618Y-61243334D01*
X127586415Y-61344562D01*
X127542880Y-61437924D01*
X127485885Y-61650629D01*
X127466693Y-61870000D01*
X127485885Y-62089371D01*
X127542880Y-62302076D01*
X127545205Y-62307061D01*
X127633618Y-62496666D01*
X127633621Y-62496671D01*
X127635944Y-62501653D01*
X127762251Y-62682038D01*
X127917962Y-62837749D01*
X128098346Y-62964056D01*
X128103328Y-62966379D01*
X128103333Y-62966382D01*
X128230768Y-63025805D01*
X128284053Y-63072722D01*
X128303514Y-63140999D01*
X128282972Y-63208959D01*
X128230768Y-63254195D01*
X128103334Y-63313618D01*
X128103329Y-63313621D01*
X128098347Y-63315944D01*
X128093840Y-63319100D01*
X128093838Y-63319101D01*
X127922473Y-63439092D01*
X127922470Y-63439094D01*
X127917962Y-63442251D01*
X127762251Y-63597962D01*
X127635944Y-63778347D01*
X127633621Y-63783329D01*
X127633618Y-63783334D01*
X127586415Y-63884562D01*
X127542880Y-63977924D01*
X127485885Y-64190629D01*
X127466693Y-64410000D01*
X117973307Y-64410000D01*
X117954115Y-64190629D01*
X117897120Y-63977924D01*
X117853585Y-63884562D01*
X117806382Y-63783334D01*
X117806379Y-63783329D01*
X117804056Y-63778347D01*
X117677749Y-63597962D01*
X117522038Y-63442251D01*
X117341654Y-63315944D01*
X117336672Y-63313621D01*
X117336667Y-63313618D01*
X117209232Y-63254195D01*
X117155947Y-63207278D01*
X117136486Y-63139001D01*
X117157028Y-63071041D01*
X117209232Y-63025805D01*
X117336667Y-62966382D01*
X117336672Y-62966379D01*
X117341654Y-62964056D01*
X117522038Y-62837749D01*
X117677749Y-62682038D01*
X117804056Y-62501653D01*
X117806379Y-62496671D01*
X117806382Y-62496666D01*
X117894795Y-62307061D01*
X117897120Y-62302076D01*
X117954115Y-62089371D01*
X117973307Y-61870000D01*
X117954115Y-61650629D01*
X117897120Y-61437924D01*
X117853585Y-61344562D01*
X117806382Y-61243334D01*
X117806379Y-61243329D01*
X117804056Y-61238347D01*
X117677749Y-61057962D01*
X117522038Y-60902251D01*
X117341654Y-60775944D01*
X117142076Y-60682880D01*
X116929371Y-60625885D01*
X116710000Y-60606693D01*
X116490629Y-60625885D01*
X116277924Y-60682880D01*
X116210769Y-60714195D01*
X116083334Y-60773618D01*
X116083329Y-60773621D01*
X116078347Y-60775944D01*
X116073840Y-60779100D01*
X116073838Y-60779101D01*
X115902473Y-60899092D01*
X115902470Y-60899094D01*
X115897962Y-60902251D01*
X115742251Y-61057962D01*
X115615944Y-61238347D01*
X115613621Y-61243329D01*
X115613618Y-61243334D01*
X115566415Y-61344562D01*
X115522880Y-61437924D01*
X115465885Y-61650629D01*
X115446693Y-61870000D01*
X115465885Y-62089371D01*
X115522880Y-62302076D01*
X115525205Y-62307061D01*
X115613618Y-62496666D01*
X115613621Y-62496671D01*
X115615944Y-62501653D01*
X115742251Y-62682038D01*
X115897962Y-62837749D01*
X116078346Y-62964056D01*
X116083328Y-62966379D01*
X116083333Y-62966382D01*
X116210768Y-63025805D01*
X116264053Y-63072722D01*
X116283514Y-63140999D01*
X116262972Y-63208959D01*
X116210768Y-63254195D01*
X116083334Y-63313618D01*
X116083329Y-63313621D01*
X116078347Y-63315944D01*
X116073840Y-63319100D01*
X116073838Y-63319101D01*
X115902473Y-63439092D01*
X115902470Y-63439094D01*
X115897962Y-63442251D01*
X115742251Y-63597962D01*
X115615944Y-63778347D01*
X115613621Y-63783329D01*
X115613618Y-63783334D01*
X115554195Y-63910769D01*
X115507278Y-63964054D01*
X115439001Y-63983515D01*
X115371041Y-63962973D01*
X115325805Y-63910769D01*
X115266382Y-63783334D01*
X115266379Y-63783329D01*
X115264056Y-63778347D01*
X115137749Y-63597962D01*
X114982038Y-63442251D01*
X114801654Y-63315944D01*
X114602076Y-63222880D01*
X114389371Y-63165885D01*
X114170000Y-63146693D01*
X113950629Y-63165885D01*
X113737924Y-63222880D01*
X113670769Y-63254195D01*
X113543334Y-63313618D01*
X113543329Y-63313621D01*
X113538347Y-63315944D01*
X113533840Y-63319100D01*
X113533838Y-63319101D01*
X113362473Y-63439092D01*
X113362470Y-63439094D01*
X113357962Y-63442251D01*
X113202251Y-63597962D01*
X113075944Y-63778347D01*
X113073621Y-63783329D01*
X113073618Y-63783334D01*
X113026415Y-63884562D01*
X112982880Y-63977924D01*
X112925885Y-64190629D01*
X112906693Y-64410000D01*
X112925885Y-64629371D01*
X112982880Y-64842076D01*
X112985205Y-64847061D01*
X113073618Y-65036666D01*
X113073621Y-65036671D01*
X113075944Y-65041653D01*
X113202251Y-65222038D01*
X113357962Y-65377749D01*
X113538346Y-65504056D01*
X113543328Y-65506379D01*
X113543333Y-65506382D01*
X113670768Y-65565805D01*
X113724053Y-65612722D01*
X113743514Y-65680999D01*
X113722972Y-65748959D01*
X113670768Y-65794195D01*
X113543334Y-65853618D01*
X113543329Y-65853621D01*
X113538347Y-65855944D01*
X113533840Y-65859100D01*
X113533838Y-65859101D01*
X113362473Y-65979092D01*
X113362470Y-65979094D01*
X113357962Y-65982251D01*
X113202251Y-66137962D01*
X113075944Y-66318347D01*
X113073621Y-66323329D01*
X113073618Y-66323334D01*
X113026415Y-66424562D01*
X112982880Y-66517924D01*
X112925885Y-66730629D01*
X112906693Y-66950000D01*
X112925885Y-67169371D01*
X112982880Y-67382076D01*
X112985205Y-67387061D01*
X113073618Y-67576666D01*
X113073621Y-67576671D01*
X113075944Y-67581653D01*
X113202251Y-67762038D01*
X113357962Y-67917749D01*
X113538346Y-68044056D01*
X113543328Y-68046379D01*
X113543333Y-68046382D01*
X113670768Y-68105805D01*
X113724053Y-68152722D01*
X113743514Y-68220999D01*
X113722972Y-68288959D01*
X113670768Y-68334195D01*
X113543334Y-68393618D01*
X113543329Y-68393621D01*
X113538347Y-68395944D01*
X113533840Y-68399100D01*
X113533838Y-68399101D01*
X113362473Y-68519092D01*
X113362470Y-68519094D01*
X113357962Y-68522251D01*
X113202251Y-68677962D01*
X113199094Y-68682470D01*
X113199092Y-68682473D01*
X113168741Y-68725819D01*
X113075944Y-68858347D01*
X113073621Y-68863329D01*
X113073618Y-68863334D01*
X113026415Y-68964562D01*
X112982880Y-69057924D01*
X112925885Y-69270629D01*
X112906693Y-69490000D01*
X112925885Y-69709371D01*
X112982880Y-69922076D01*
X112985205Y-69927061D01*
X113073618Y-70116666D01*
X113073621Y-70116671D01*
X113075944Y-70121653D01*
X113079100Y-70126160D01*
X113079101Y-70126162D01*
X113178769Y-70268502D01*
X113202251Y-70302038D01*
X113357962Y-70457749D01*
X113538346Y-70584056D01*
X113543328Y-70586379D01*
X113543333Y-70586382D01*
X113670768Y-70645805D01*
X113724053Y-70692722D01*
X113743514Y-70760999D01*
X113722972Y-70828959D01*
X113670768Y-70874195D01*
X113543334Y-70933618D01*
X113543329Y-70933621D01*
X113538347Y-70935944D01*
X113533840Y-70939100D01*
X113533838Y-70939101D01*
X113362473Y-71059092D01*
X113362470Y-71059094D01*
X113357962Y-71062251D01*
X113202251Y-71217962D01*
X113075944Y-71398347D01*
X113073621Y-71403329D01*
X113073618Y-71403334D01*
X113026415Y-71504562D01*
X112982880Y-71597924D01*
X112925885Y-71810629D01*
X112906693Y-72030000D01*
X112925885Y-72249371D01*
X112982880Y-72462076D01*
X113007549Y-72514979D01*
X113073618Y-72656666D01*
X113073621Y-72656671D01*
X113075944Y-72661653D01*
X113079100Y-72666160D01*
X113079101Y-72666162D01*
X113140472Y-72753808D01*
X113202251Y-72842038D01*
X113357962Y-72997749D01*
X113362471Y-73000906D01*
X113362473Y-73000908D01*
X113437241Y-73053261D01*
X113538346Y-73124056D01*
X113543328Y-73126379D01*
X113543333Y-73126382D01*
X113670768Y-73185805D01*
X113724053Y-73232722D01*
X113743514Y-73300999D01*
X113722972Y-73368959D01*
X113670768Y-73414195D01*
X113543334Y-73473618D01*
X113543329Y-73473621D01*
X113538347Y-73475944D01*
X113533840Y-73479100D01*
X113533838Y-73479101D01*
X113362473Y-73599092D01*
X113362470Y-73599094D01*
X113357962Y-73602251D01*
X113202251Y-73757962D01*
X113075944Y-73938347D01*
X113073621Y-73943329D01*
X113073618Y-73943334D01*
X113026415Y-74044562D01*
X112982880Y-74137924D01*
X112925885Y-74350629D01*
X112906693Y-74570000D01*
X112925885Y-74789371D01*
X112982880Y-75002076D01*
X112985205Y-75007061D01*
X113073618Y-75196666D01*
X113073621Y-75196671D01*
X113075944Y-75201653D01*
X113202251Y-75382038D01*
X113357962Y-75537749D01*
X113538346Y-75664056D01*
X113543328Y-75666379D01*
X113543333Y-75666382D01*
X113670768Y-75725805D01*
X113724053Y-75772722D01*
X113743514Y-75840999D01*
X113722972Y-75908959D01*
X113670768Y-75954195D01*
X113543334Y-76013618D01*
X113543329Y-76013621D01*
X113538347Y-76015944D01*
X113533840Y-76019100D01*
X113533838Y-76019101D01*
X113362473Y-76139092D01*
X113362470Y-76139094D01*
X113357962Y-76142251D01*
X113202251Y-76297962D01*
X113075944Y-76478347D01*
X113073621Y-76483329D01*
X113073618Y-76483334D01*
X113026415Y-76584562D01*
X112982880Y-76677924D01*
X112925885Y-76890629D01*
X112906693Y-77110000D01*
X112925885Y-77329371D01*
X112982880Y-77542076D01*
X112985205Y-77547061D01*
X113073618Y-77736666D01*
X113073621Y-77736671D01*
X113075944Y-77741653D01*
X113202251Y-77922038D01*
X113357962Y-78077749D01*
X113538346Y-78204056D01*
X113543328Y-78206379D01*
X113543333Y-78206382D01*
X113670768Y-78265805D01*
X113724053Y-78312722D01*
X113743514Y-78380999D01*
X113722972Y-78448959D01*
X113670768Y-78494195D01*
X113543334Y-78553618D01*
X113543329Y-78553621D01*
X113538347Y-78555944D01*
X113533840Y-78559100D01*
X113533838Y-78559101D01*
X113362473Y-78679092D01*
X113362470Y-78679094D01*
X113357962Y-78682251D01*
X113202251Y-78837962D01*
X113075944Y-79018347D01*
X113073621Y-79023329D01*
X113073618Y-79023334D01*
X113026415Y-79124562D01*
X112982880Y-79217924D01*
X112925885Y-79430629D01*
X112906693Y-79650000D01*
X112925885Y-79869371D01*
X112982880Y-80082076D01*
X112985205Y-80087061D01*
X113073618Y-80276666D01*
X113073621Y-80276671D01*
X113075944Y-80281653D01*
X113202251Y-80462038D01*
X113357962Y-80617749D01*
X113538346Y-80744056D01*
X113543328Y-80746379D01*
X113543333Y-80746382D01*
X113670768Y-80805805D01*
X113724053Y-80852722D01*
X113743514Y-80920999D01*
X113722972Y-80988959D01*
X113670768Y-81034195D01*
X113543334Y-81093618D01*
X113543329Y-81093621D01*
X113538347Y-81095944D01*
X113533840Y-81099100D01*
X113533838Y-81099101D01*
X113362473Y-81219092D01*
X113362470Y-81219094D01*
X113357962Y-81222251D01*
X113202251Y-81377962D01*
X113075944Y-81558347D01*
X113073621Y-81563329D01*
X113073618Y-81563334D01*
X113026415Y-81664562D01*
X112982880Y-81757924D01*
X112925885Y-81970629D01*
X112906693Y-82190000D01*
X112925885Y-82409371D01*
X112982880Y-82622076D01*
X112985205Y-82627061D01*
X113073618Y-82816666D01*
X113073621Y-82816671D01*
X113075944Y-82821653D01*
X113202251Y-83002038D01*
X113357962Y-83157749D01*
X113538346Y-83284056D01*
X113543328Y-83286379D01*
X113543333Y-83286382D01*
X113670768Y-83345805D01*
X113724053Y-83392722D01*
X113743514Y-83460999D01*
X113722972Y-83528959D01*
X113670768Y-83574195D01*
X113543334Y-83633618D01*
X113543329Y-83633621D01*
X113538347Y-83635944D01*
X113533840Y-83639100D01*
X113533838Y-83639101D01*
X113362473Y-83759092D01*
X113362470Y-83759094D01*
X113357962Y-83762251D01*
X113202251Y-83917962D01*
X113075944Y-84098347D01*
X113073621Y-84103329D01*
X113073618Y-84103334D01*
X113026415Y-84204562D01*
X112982880Y-84297924D01*
X112925885Y-84510629D01*
X112906693Y-84730000D01*
X112925885Y-84949371D01*
X112982880Y-85162076D01*
X112985205Y-85167061D01*
X113073618Y-85356666D01*
X113073621Y-85356671D01*
X113075944Y-85361653D01*
X113202251Y-85542038D01*
X113357962Y-85697749D01*
X113538346Y-85824056D01*
X113543328Y-85826379D01*
X113543333Y-85826382D01*
X113670768Y-85885805D01*
X113724053Y-85932722D01*
X113743514Y-86000999D01*
X113722972Y-86068959D01*
X113670768Y-86114195D01*
X113543334Y-86173618D01*
X113543329Y-86173621D01*
X113538347Y-86175944D01*
X113533840Y-86179100D01*
X113533838Y-86179101D01*
X113362473Y-86299092D01*
X113362470Y-86299094D01*
X113357962Y-86302251D01*
X113202251Y-86457962D01*
X113075944Y-86638347D01*
X113073621Y-86643329D01*
X113073618Y-86643334D01*
X113026415Y-86744562D01*
X112982880Y-86837924D01*
X112925885Y-87050629D01*
X112906693Y-87270000D01*
X112925885Y-87489371D01*
X112982880Y-87702076D01*
X112985205Y-87707061D01*
X113073618Y-87896666D01*
X113073621Y-87896671D01*
X113075944Y-87901653D01*
X113202251Y-88082038D01*
X113357962Y-88237749D01*
X113538346Y-88364056D01*
X113543328Y-88366379D01*
X113543333Y-88366382D01*
X113670768Y-88425805D01*
X113724053Y-88472722D01*
X113743514Y-88540999D01*
X113722972Y-88608959D01*
X113670768Y-88654195D01*
X113543334Y-88713618D01*
X113543329Y-88713621D01*
X113538347Y-88715944D01*
X113533840Y-88719100D01*
X113533838Y-88719101D01*
X113362473Y-88839092D01*
X113362470Y-88839094D01*
X113357962Y-88842251D01*
X113202251Y-88997962D01*
X113075944Y-89178347D01*
X113073621Y-89183329D01*
X113073618Y-89183334D01*
X113026415Y-89284562D01*
X112982880Y-89377924D01*
X112925885Y-89590629D01*
X112906693Y-89810000D01*
X112925885Y-90029371D01*
X112982880Y-90242076D01*
X112985205Y-90247061D01*
X113073618Y-90436666D01*
X113073621Y-90436671D01*
X113075944Y-90441653D01*
X113202251Y-90622038D01*
X113357962Y-90777749D01*
X113538346Y-90904056D01*
X113543328Y-90906379D01*
X113543333Y-90906382D01*
X113670768Y-90965805D01*
X113724053Y-91012722D01*
X113743514Y-91080999D01*
X113722972Y-91148959D01*
X113670768Y-91194195D01*
X113543334Y-91253618D01*
X113543329Y-91253621D01*
X113538347Y-91255944D01*
X113533840Y-91259100D01*
X113533838Y-91259101D01*
X113362473Y-91379092D01*
X113362470Y-91379094D01*
X113357962Y-91382251D01*
X113202251Y-91537962D01*
X113199094Y-91542470D01*
X113199092Y-91542473D01*
X113168741Y-91585819D01*
X113075944Y-91718347D01*
X113073621Y-91723329D01*
X113073618Y-91723334D01*
X113026415Y-91824562D01*
X112982880Y-91917924D01*
X112925885Y-92130629D01*
X112906693Y-92350000D01*
X112925885Y-92569371D01*
X112982880Y-92782076D01*
X112985205Y-92787061D01*
X113073618Y-92976666D01*
X113073621Y-92976671D01*
X113075944Y-92981653D01*
X113079100Y-92986160D01*
X113079101Y-92986162D01*
X113178769Y-93128502D01*
X113202251Y-93162038D01*
X113357962Y-93317749D01*
X113538346Y-93444056D01*
X113543328Y-93446379D01*
X113543333Y-93446382D01*
X113670768Y-93505805D01*
X113724053Y-93552722D01*
X113743514Y-93620999D01*
X113722972Y-93688959D01*
X113670768Y-93734195D01*
X113543334Y-93793618D01*
X113543329Y-93793621D01*
X113538347Y-93795944D01*
X113533840Y-93799100D01*
X113533838Y-93799101D01*
X113362473Y-93919092D01*
X113362470Y-93919094D01*
X113357962Y-93922251D01*
X113202251Y-94077962D01*
X113075944Y-94258347D01*
X113073621Y-94263329D01*
X113073618Y-94263334D01*
X113026415Y-94364562D01*
X112982880Y-94457924D01*
X112925885Y-94670629D01*
X112906693Y-94890000D01*
X112925885Y-95109371D01*
X112982880Y-95322076D01*
X112985205Y-95327061D01*
X113073618Y-95516666D01*
X113073621Y-95516671D01*
X113075944Y-95521653D01*
X113079100Y-95526160D01*
X113079101Y-95526162D01*
X113186797Y-95679967D01*
X113202251Y-95702038D01*
X113357962Y-95857749D01*
X113538346Y-95984056D01*
X113543328Y-95986379D01*
X113543333Y-95986382D01*
X113670768Y-96045805D01*
X113724053Y-96092722D01*
X113743514Y-96160999D01*
X113722972Y-96228959D01*
X113670768Y-96274195D01*
X113543334Y-96333618D01*
X113543329Y-96333621D01*
X113538347Y-96335944D01*
X113533840Y-96339100D01*
X113533838Y-96339101D01*
X113362473Y-96459092D01*
X113362470Y-96459094D01*
X113357962Y-96462251D01*
X113202251Y-96617962D01*
X113075944Y-96798347D01*
X113073621Y-96803329D01*
X113073618Y-96803334D01*
X113026415Y-96904562D01*
X112982880Y-96997924D01*
X112925885Y-97210629D01*
X112906693Y-97430000D01*
X112925885Y-97649371D01*
X112982880Y-97862076D01*
X112985205Y-97867061D01*
X113073618Y-98056666D01*
X113073621Y-98056671D01*
X113075944Y-98061653D01*
X113202251Y-98242038D01*
X113357962Y-98397749D01*
X113538346Y-98524056D01*
X113543328Y-98526379D01*
X113543333Y-98526382D01*
X113670768Y-98585805D01*
X113724053Y-98632722D01*
X113743514Y-98700999D01*
X113722972Y-98768959D01*
X113670768Y-98814195D01*
X113543334Y-98873618D01*
X113543329Y-98873621D01*
X113538347Y-98875944D01*
X113533840Y-98879100D01*
X113533838Y-98879101D01*
X113362473Y-98999092D01*
X113362470Y-98999094D01*
X113357962Y-99002251D01*
X113202251Y-99157962D01*
X113075944Y-99338347D01*
X113073621Y-99343329D01*
X113073618Y-99343334D01*
X113026415Y-99444562D01*
X112982880Y-99537924D01*
X112925885Y-99750629D01*
X112906693Y-99970000D01*
X112925885Y-100189371D01*
X112982880Y-100402076D01*
X112985205Y-100407061D01*
X113073618Y-100596666D01*
X113073621Y-100596671D01*
X113075944Y-100601653D01*
X113202251Y-100782038D01*
X113357962Y-100937749D01*
X113538346Y-101064056D01*
X113543328Y-101066379D01*
X113543333Y-101066382D01*
X113670768Y-101125805D01*
X113724053Y-101172722D01*
X113743514Y-101240999D01*
X113722972Y-101308959D01*
X113670768Y-101354195D01*
X113543334Y-101413618D01*
X113543329Y-101413621D01*
X113538347Y-101415944D01*
X113533840Y-101419100D01*
X113533838Y-101419101D01*
X113362473Y-101539092D01*
X113362470Y-101539094D01*
X113357962Y-101542251D01*
X113202251Y-101697962D01*
X113075944Y-101878347D01*
X113073621Y-101883329D01*
X113073618Y-101883334D01*
X113026415Y-101984562D01*
X112982880Y-102077924D01*
X112925885Y-102290629D01*
X112906693Y-102510000D01*
X112925885Y-102729371D01*
X112982880Y-102942076D01*
X112985205Y-102947061D01*
X113073618Y-103136666D01*
X113073621Y-103136671D01*
X113075944Y-103141653D01*
X113202251Y-103322038D01*
X113357962Y-103477749D01*
X113538346Y-103604056D01*
X113543328Y-103606379D01*
X113543333Y-103606382D01*
X113670768Y-103665805D01*
X113724053Y-103712722D01*
X113743514Y-103780999D01*
X113722972Y-103848959D01*
X113670768Y-103894195D01*
X113543334Y-103953618D01*
X113543329Y-103953621D01*
X113538347Y-103955944D01*
X113533840Y-103959100D01*
X113533838Y-103959101D01*
X113362473Y-104079092D01*
X113362470Y-104079094D01*
X113357962Y-104082251D01*
X113202251Y-104237962D01*
X113075944Y-104418347D01*
X113073621Y-104423329D01*
X113073618Y-104423334D01*
X113044481Y-104485819D01*
X112982880Y-104617924D01*
X112925885Y-104830629D01*
X112906693Y-105050000D01*
X112000000Y-105050000D01*
X112000000Y-59126000D01*
X112020002Y-59057879D01*
X112073658Y-59011386D01*
X112126000Y-59000000D01*
X126000000Y-59000000D01*
X126000000Y-53126000D01*
X126020002Y-53057879D01*
X126073658Y-53011386D01*
X126126000Y-53000000D01*
X133874000Y-53000000D01*
X133942121Y-53020002D01*
G37*
%TD.AperFunction*%
%TD*%
M02*
